<svg xmlns="http://www.w3.org/2000/svg" xmlns:xlink="http://www.w3.org/1999/xlink" width="500" zoomAndPan="magnify" viewBox="0 0 375 374.999991" height="500" preserveAspectRatio="xMidYMid meet" version="1.0"><defs><g/></defs><g fill="#14df98" fill-opacity="1"><g transform="translate(-13.812279, 323.848818)"><g><path d="M 78.726562 -90.109375 C 82.046875 -90.109375 84.890625 -91.53125 84.890625 -94.851562 C 85.367188 -96.75 84.890625 -98.171875 82.519531 -99.59375 C 81.097656 -100.542969 79.199219 -101.492188 77.777344 -101.964844 C 74.457031 -102.441406 71.613281 -103.863281 69.242188 -107.183594 C 66.871094 -109.554688 64.972656 -112.398438 63.078125 -114.769531 C 60.703125 -117.140625 58.332031 -119.511719 55.960938 -121.882812 C 44.582031 -133.265625 44.582031 -130.421875 54.539062 -143.699219 L 57.859375 -147.96875 C 67.34375 -160.773438 75.882812 -173.578125 82.996094 -187.332031 L 87.261719 -196.816406 C 88.210938 -199.664062 87.261719 -202.035156 84.417969 -204.40625 C 82.519531 -205.351562 80.625 -205.828125 79.199219 -205.828125 C 73.984375 -205.828125 69.242188 -199.1875 66.871094 -195.394531 C 61.179688 -187.332031 55.488281 -179.742188 49.796875 -172.15625 C 43.632812 -164.566406 38.414062 -156.503906 33.671875 -147.96875 C 33.199219 -147.492188 32.722656 -146.546875 32.25 -146.070312 C 31.300781 -144.648438 29.878906 -143.699219 27.980469 -143.226562 C 22.765625 -141.328125 22.289062 -139.90625 25.609375 -136.113281 C 26.558594 -134.6875 27.507812 -133.742188 28.457031 -132.792969 C 28.929688 -131.371094 29.878906 -130.421875 31.300781 -129.472656 C 33.199219 -127.101562 35.09375 -125.203125 37.464844 -123.308594 C 39.363281 -120.9375 41.261719 -119.039062 43.632812 -116.667969 C 49.796875 -110.5 55.960938 -104.8125 62.128906 -99.121094 C 65.449219 -95.800781 68.765625 -92.953125 73.035156 -91.53125 Z M 78.726562 -90.109375 "/></g></g></g><g fill="#14df98" fill-opacity="1"><g transform="translate(97.164437, 323.848818)"><g><path d="M 34.148438 30.828125 C 37.941406 30.828125 39.835938 30.828125 41.734375 27.03125 C 51.21875 9.960938 58.332031 -8.0625 64.5 -26.558594 L 91.53125 -99.59375 C 94.851562 -110.027344 98.644531 -120.460938 102.914062 -131.371094 C 106.707031 -141.804688 110.5 -152.238281 113.820312 -162.671875 C 123.308594 -189.703125 131.84375 -216.261719 140.855469 -243.292969 C 142.277344 -248.511719 143.226562 -252.777344 144.648438 -257.046875 L 154.609375 -299.730469 C 155.082031 -302.101562 155.554688 -304 156.03125 -306.371094 C 156.03125 -308.265625 156.03125 -310.636719 156.503906 -313.007812 C 156.503906 -315.382812 155.082031 -316.804688 152.238281 -317.277344 C 148.441406 -317.277344 144.648438 -317.277344 142.75 -313.007812 L 138.484375 -303.050781 C 136.113281 -296.410156 134.214844 -289.769531 132.316406 -283.132812 C 130.421875 -276.492188 128.523438 -269.851562 126.152344 -263.6875 C 122.359375 -250.882812 118.089844 -239.5 113.820312 -226.695312 C 112.398438 -222.425781 110.976562 -218.160156 109.554688 -213.890625 C 108.128906 -209.621094 106.234375 -205.828125 104.8125 -201.558594 L 59.757812 -76.355469 C 56.910156 -68.292969 54.066406 -60.703125 51.695312 -53.117188 C 48.847656 -45.054688 46.003906 -37.464844 42.683594 -29.402344 C 40.3125 -22.289062 37.464844 -15.175781 35.09375 -8.0625 C 32.25 -0.949219 29.402344 5.691406 27.03125 12.804688 L 24.1875 21.339844 C 23.238281 24.660156 24.660156 27.03125 27.980469 28.457031 C 30.351562 29.878906 32.25 30.351562 34.148438 30.828125 Z M 34.148438 30.828125 "/></g></g></g><g fill="#14df98" fill-opacity="1"><g transform="translate(277.383254, 323.848818)"><g><path d="M 32.722656 -87.261719 L 38.414062 -88.6875 C 41.734375 -90.109375 45.527344 -92.480469 49.324219 -96.273438 C 55.488281 -101.964844 61.652344 -107.65625 67.820312 -113.820312 C 70.191406 -116.191406 72.085938 -118.089844 74.457031 -120.460938 C 76.355469 -122.359375 78.253906 -124.253906 80.148438 -126.625 C 81.570312 -127.574219 82.519531 -128.523438 83.46875 -129.945312 C 83.945312 -130.894531 84.890625 -131.84375 85.839844 -133.265625 C 88.210938 -136.585938 87.738281 -138.957031 83.46875 -140.378906 C 81.570312 -140.855469 80.148438 -141.804688 79.199219 -143.226562 C 78.726562 -143.699219 78.253906 -144.648438 77.777344 -145.121094 C 73.035156 -153.660156 67.820312 -161.722656 62.128906 -169.308594 C 55.960938 -176.898438 50.269531 -184.484375 44.582031 -192.546875 C 42.207031 -196.34375 37.464844 -202.980469 32.25 -202.980469 C 30.828125 -202.980469 28.929688 -202.507812 27.03125 -201.558594 C 24.1875 -199.1875 23.238281 -196.816406 24.1875 -193.972656 L 28.457031 -184.484375 C 35.570312 -170.734375 44.105469 -157.925781 53.589844 -145.121094 L 56.910156 -140.855469 C 66.871094 -127.574219 66.871094 -130.421875 55.488281 -119.039062 C 53.117188 -116.667969 50.746094 -114.296875 48.847656 -111.925781 C 46.476562 -109.554688 44.582031 -106.707031 42.207031 -104.335938 C 39.835938 -101.015625 36.992188 -99.59375 33.671875 -99.121094 C 32.25 -98.644531 30.351562 -97.695312 28.929688 -96.75 C 26.558594 -95.324219 26.085938 -93.902344 26.558594 -92.007812 C 26.558594 -88.6875 29.402344 -87.261719 32.722656 -87.261719 Z M 32.722656 -87.261719 "/></g></g></g></svg>