<svg xmlns="http://www.w3.org/2000/svg" xmlns:xlink="http://www.w3.org/1999/xlink" width="160" zoomAndPan="magnify" viewBox="0 0 120 37.5" height="50" preserveAspectRatio="xMidYMid meet" version="1.0"><defs><g/><clipPath id="fbfc164038"><path d="M 12 3.699219 L 13 3.699219 L 13 5 L 12 5 Z M 12 3.699219 " clip-rule="nonzero"/></clipPath><clipPath id="72d9396ec6"><path d="M 17 3.699219 L 18 3.699219 L 18 4 L 17 4 Z M 17 3.699219 " clip-rule="nonzero"/></clipPath><clipPath id="a732216ba2"><path d="M 13 3.699219 L 15 3.699219 L 15 5 L 13 5 Z M 13 3.699219 " clip-rule="nonzero"/></clipPath><clipPath id="72a12d1a2a"><path d="M 0.789062 14 L 1 14 L 1 15 L 0.789062 15 Z M 0.789062 14 " clip-rule="nonzero"/></clipPath><clipPath id="d927172fff"><path d="M 0.789062 14 L 2 14 L 2 15 L 0.789062 15 Z M 0.789062 14 " clip-rule="nonzero"/></clipPath><clipPath id="4b88fba1aa"><path d="M 0.789062 13 L 2 13 L 2 15 L 0.789062 15 Z M 0.789062 13 " clip-rule="nonzero"/></clipPath><clipPath id="1ad953000c"><path d="M 1 3.699219 L 30.394531 3.699219 L 30.394531 33.304688 L 1 33.304688 Z M 1 3.699219 " clip-rule="nonzero"/></clipPath></defs><g clip-path="url(#fbfc164038)"><path fill="#14df98" d="M 12.296875 4.105469 C 12.292969 4.070312 12.285156 4.03125 12.277344 3.984375 C 12.21875 4.050781 12.238281 4.085938 12.296875 4.105469 Z M 12.296875 4.105469 " fill-opacity="1" fill-rule="nonzero"/></g><g clip-path="url(#72d9396ec6)"><path fill="#14df98" d="M 17.410156 3.972656 C 17.535156 3.972656 17.65625 3.972656 17.65625 3.972656 C 17.683594 3.980469 17.695312 3.980469 17.707031 3.980469 C 17.710938 3.980469 17.714844 3.980469 17.71875 3.980469 C 17.71875 3.964844 17.238281 3.824219 17.222656 3.972656 C 17.226562 3.972656 17.230469 3.972656 17.238281 3.972656 C 17.285156 3.972656 17.347656 3.972656 17.410156 3.972656 Z M 17.410156 3.972656 " fill-opacity="1" fill-rule="nonzero"/></g><path fill="#14df98" d="M 15.011719 4.070312 C 14.953125 4.046875 14.890625 4.027344 14.824219 4.015625 C 14.878906 4.035156 14.941406 4.054688 15.011719 4.070312 Z M 15.011719 4.070312 " fill-opacity="1" fill-rule="nonzero"/><path fill="#14df98" d="M 16.394531 4.222656 C 16.296875 4.195312 16.199219 4.175781 16.09375 4.160156 C 16.007812 4.148438 15.917969 4.140625 15.824219 4.140625 C 15.734375 4.144531 15.640625 4.152344 15.542969 4.167969 C 15.542969 4.167969 15.546875 4.171875 15.546875 4.175781 C 15.679688 4.195312 15.816406 4.207031 15.957031 4.21875 C 16.101562 4.230469 16.25 4.230469 16.394531 4.222656 Z M 16.394531 4.222656 " fill-opacity="1" fill-rule="nonzero"/><g clip-path="url(#a732216ba2)"><path fill="#14df98" d="M 14.390625 4.097656 C 14.5 4.074219 14.574219 4.058594 14.574219 4.058594 C 14.574219 4.058594 14.511719 3.96875 14.445312 3.878906 C 14.378906 3.789062 14.3125 3.699219 14.3125 3.699219 C 13.757812 3.707031 13.824219 3.859375 13.882812 4.015625 C 13.910156 4.089844 13.9375 4.167969 13.882812 4.234375 C 13.917969 4.222656 13.953125 4.214844 13.984375 4.207031 C 14.132812 4.167969 14.28125 4.128906 14.390625 4.097656 Z M 14.390625 4.097656 " fill-opacity="1" fill-rule="nonzero"/></g><path fill="#14df98" d="M 13.882812 4.234375 C 13.773438 4.261719 13.667969 4.292969 13.585938 4.320312 C 13.476562 4.355469 13.40625 4.378906 13.40625 4.378906 C 13.550781 4.363281 13.65625 4.34375 13.730469 4.316406 C 13.808594 4.292969 13.855469 4.265625 13.882812 4.234375 Z M 13.882812 4.234375 " fill-opacity="1" fill-rule="nonzero"/><path fill="#14df98" d="M 23.191406 31.707031 C 23.160156 31.753906 23.113281 31.804688 23.058594 31.859375 C 23.113281 31.84375 23.171875 31.820312 23.222656 31.789062 Z M 23.191406 31.707031 " fill-opacity="1" fill-rule="nonzero"/><path fill="#14df98" d="M 23.117188 31.503906 L 23.191406 31.707031 C 23.257812 31.609375 23.261719 31.53125 23.117188 31.503906 Z M 23.117188 31.503906 " fill-opacity="1" fill-rule="nonzero"/><path fill="#14df98" d="M 21.234375 32.433594 C 21.085938 32.589844 20.925781 32.730469 20.925781 32.730469 C 21.0625 32.703125 21.292969 32.632812 21.449219 32.53125 C 21.609375 32.429688 21.6875 32.296875 21.535156 32.136719 C 21.535156 32.136719 21.382812 32.285156 21.234375 32.433594 Z M 21.234375 32.433594 " fill-opacity="1" fill-rule="nonzero"/><path fill="#14df98" d="M 25.867188 27.292969 L 25.730469 27.199219 C 25.738281 27.257812 25.773438 27.296875 25.867188 27.292969 Z M 25.867188 27.292969 " fill-opacity="1" fill-rule="nonzero"/><path fill="#14df98" d="M 2.703125 12.851562 C 2.691406 12.820312 2.671875 12.789062 2.648438 12.757812 C 2.648438 12.757812 2.667969 12.796875 2.703125 12.851562 Z M 2.703125 12.851562 " fill-opacity="1" fill-rule="nonzero"/><path fill="#14df98" d="M 15.71875 32.800781 L 15.703125 32.78125 C 15.703125 32.789062 15.707031 32.796875 15.71875 32.800781 Z M 15.71875 32.800781 " fill-opacity="1" fill-rule="nonzero"/><path fill="#14df98" d="M 23.554688 6.796875 C 23.59375 6.757812 23.621094 6.730469 23.621094 6.730469 C 23.589844 6.75 23.570312 6.769531 23.554688 6.796875 Z M 23.554688 6.796875 " fill-opacity="1" fill-rule="nonzero"/><path fill="#14df98" d="M 29.605469 22.070312 C 29.597656 22.074219 29.589844 22.074219 29.582031 22.074219 C 29.582031 22.085938 29.582031 22.097656 29.582031 22.113281 C 29.589844 22.097656 29.597656 22.085938 29.605469 22.070312 Z M 29.605469 22.070312 " fill-opacity="1" fill-rule="nonzero"/><path fill="#14df98" d="M 29.425781 23.316406 C 29.488281 22.953125 29.554688 22.511719 29.578125 22.132812 C 29.578125 22.125 29.578125 22.121094 29.582031 22.113281 C 29.449219 22.304688 29.394531 22.464844 29.386719 22.644531 C 29.382812 22.835938 29.414062 23.042969 29.425781 23.316406 Z M 29.425781 23.316406 " fill-opacity="1" fill-rule="nonzero"/><path fill="#14df98" d="M 28.324219 26.289062 C 28.355469 26.3125 28.386719 26.335938 28.425781 26.359375 C 28.421875 26.273438 28.382812 26.265625 28.324219 26.289062 Z M 28.324219 26.289062 " fill-opacity="1" fill-rule="nonzero"/><path fill="#14df98" d="M 27.496094 26.160156 C 27.496094 26.160156 27.597656 26.015625 27.695312 25.871094 C 27.789062 25.722656 27.878906 25.574219 27.878906 25.574219 C 28.003906 25.742188 27.925781 25.945312 27.835938 26.125 C 27.746094 26.308594 27.660156 26.476562 27.785156 26.601562 C 27.933594 26.648438 28.183594 26.355469 28.324219 26.289062 C 28.078125 26.09375 28.152344 25.894531 28.199219 25.734375 C 28.25 25.554688 28.265625 25.425781 27.769531 25.40625 C 27.746094 25.449219 27.722656 25.492188 27.703125 25.539062 C 27.628906 25.703125 27.566406 25.902344 27.496094 26.160156 Z M 27.496094 26.160156 " fill-opacity="1" fill-rule="nonzero"/><path fill="#14df98" d="M 28.277344 24.03125 C 28.253906 24.292969 28.207031 24.5 28.148438 24.667969 C 28.101562 24.785156 28.050781 24.886719 28 24.984375 C 28.054688 24.953125 28.113281 24.945312 28.175781 24.9375 C 28.328125 24.914062 28.507812 24.886719 28.632812 24.417969 C 28.632812 24.417969 28.542969 24.320312 28.457031 24.222656 C 28.367188 24.125 28.277344 24.03125 28.277344 24.03125 Z M 28.277344 24.03125 " fill-opacity="1" fill-rule="nonzero"/><path fill="#14df98" d="M 27.753906 25.40625 C 27.761719 25.40625 27.765625 25.40625 27.769531 25.40625 C 27.824219 25.300781 27.878906 25.207031 27.933594 25.109375 C 27.953125 25.066406 27.976562 25.027344 28 24.984375 C 27.984375 24.992188 27.964844 25.003906 27.949219 25.019531 C 27.878906 25.078125 27.820312 25.195312 27.753906 25.40625 Z M 27.753906 25.40625 " fill-opacity="1" fill-rule="nonzero"/><path fill="#14df98" d="M 25.804688 28.742188 C 25.871094 28.675781 25.929688 28.605469 25.984375 28.527344 C 25.984375 28.527344 25.980469 28.523438 25.976562 28.523438 C 25.871094 28.601562 25.761719 28.6875 25.660156 28.78125 C 25.546875 28.875 25.441406 28.976562 25.34375 29.082031 C 25.429688 29.035156 25.515625 28.980469 25.601562 28.917969 C 25.671875 28.863281 25.742188 28.808594 25.804688 28.742188 Z M 25.804688 28.742188 " fill-opacity="1" fill-rule="nonzero"/><path fill="#14df98" d="M 26.429688 28.21875 C 26.488281 28.195312 26.546875 28.167969 26.601562 28.128906 C 26.550781 28.152344 26.492188 28.183594 26.429688 28.21875 Z M 26.429688 28.21875 " fill-opacity="1" fill-rule="nonzero"/><path fill="#14df98" d="M 26.15625 28.261719 C 26.039062 28.238281 25.984375 28.144531 26.050781 27.949219 C 26.050781 27.949219 26.183594 27.945312 26.320312 27.941406 C 26.457031 27.9375 26.59375 27.933594 26.59375 27.933594 C 26.59375 27.933594 26.589844 27.863281 26.589844 27.765625 C 26.589844 27.667969 26.582031 27.53125 26.570312 27.398438 C 26.550781 27.132812 26.527344 26.878906 26.527344 26.878906 C 26.53125 27.066406 26.464844 27.222656 26.375 27.355469 C 26.28125 27.488281 26.152344 27.589844 26.050781 27.6875 C 25.847656 27.882812 25.707031 28.042969 25.984375 28.332031 C 25.984375 28.332031 25.875 28.355469 25.769531 28.378906 C 25.664062 28.398438 25.558594 28.417969 25.558594 28.417969 C 25.558594 28.417969 25.664062 28.445312 25.769531 28.472656 C 25.863281 28.496094 25.953125 28.519531 25.976562 28.523438 C 26.140625 28.402344 26.296875 28.300781 26.429688 28.21875 C 26.332031 28.261719 26.234375 28.277344 26.15625 28.261719 Z M 26.15625 28.261719 " fill-opacity="1" fill-rule="nonzero"/><path fill="#14df98" d="M 24.804688 29.972656 C 24.71875 30.058594 24.628906 30.148438 24.628906 30.148438 C 24.609375 30.160156 24.597656 30.167969 24.589844 30.175781 C 24.585938 30.179688 24.585938 30.179688 24.582031 30.183594 C 24.59375 30.195312 25.03125 29.957031 24.9375 29.84375 C 24.933594 29.847656 24.929688 29.851562 24.929688 29.855469 C 24.894531 29.886719 24.851562 29.929688 24.804688 29.972656 Z M 24.804688 29.972656 " fill-opacity="1" fill-rule="nonzero"/><path fill="#14df98" d="M 27.347656 26.875 C 27.253906 26.988281 27.195312 27.078125 27.160156 27.148438 C 27.125 27.21875 27.109375 27.269531 27.113281 27.3125 C 27.113281 27.3125 27.113281 27.3125 27.113281 27.316406 C 27.171875 27.214844 27.222656 27.121094 27.261719 27.042969 C 27.3125 26.941406 27.347656 26.875 27.347656 26.875 Z M 27.347656 26.875 " fill-opacity="1" fill-rule="nonzero"/><path fill="#14df98" d="M 27.269531 27.46875 C 27.195312 27.433594 27.121094 27.398438 27.113281 27.316406 C 27.097656 27.34375 27.078125 27.375 27.058594 27.40625 C 26.984375 27.535156 26.90625 27.667969 26.851562 27.765625 C 26.789062 27.859375 26.75 27.925781 26.75 27.925781 C 26.75 27.925781 26.859375 27.941406 26.96875 27.960938 C 27.078125 27.976562 27.191406 27.992188 27.191406 27.992188 C 27.574219 27.597656 27.421875 27.539062 27.269531 27.46875 Z M 27.269531 27.46875 " fill-opacity="1" fill-rule="nonzero"/><g clip-path="url(#72a12d1a2a)"><path fill="#14df98" d="M 0.957031 14.421875 C 0.949219 14.363281 0.945312 14.296875 0.945312 14.21875 C 0.917969 14.269531 0.894531 14.324219 0.878906 14.382812 Z M 0.957031 14.421875 " fill-opacity="1" fill-rule="nonzero"/></g><g clip-path="url(#d927172fff)"><path fill="#14df98" d="M 1.15625 14.511719 L 0.957031 14.421875 C 0.980469 14.539062 1.035156 14.59375 1.15625 14.511719 Z M 1.15625 14.511719 " fill-opacity="1" fill-rule="nonzero"/></g><g clip-path="url(#4b88fba1aa)"><path fill="#14df98" d="M 1.585938 13.617188 C 1.777344 13.472656 1.851562 13.34375 1.558594 13.117188 C 1.558594 13.117188 1.46875 13.269531 1.378906 13.425781 C 1.335938 13.503906 1.292969 13.582031 1.257812 13.640625 C 1.226562 13.699219 1.203125 13.742188 1.203125 13.742188 C 0.929688 13.601562 0.792969 13.53125 1.03125 13.136719 C 0.871094 13.179688 0.847656 13.625 0.8125 13.859375 L 0.910156 13.71875 C 0.953125 13.84375 0.941406 14.046875 0.945312 14.21875 C 1.09375 13.933594 1.390625 13.757812 1.585938 13.617188 Z M 1.585938 13.617188 " fill-opacity="1" fill-rule="nonzero"/></g><path fill="#14df98" d="M 1.824219 12.953125 C 1.824219 12.953125 1.824219 12.742188 1.824219 12.53125 C 1.820312 12.316406 1.835938 12.105469 1.835938 12.105469 C 1.753906 12.222656 1.640625 12.433594 1.601562 12.617188 C 1.5625 12.796875 1.601562 12.949219 1.824219 12.953125 Z M 1.824219 12.953125 " fill-opacity="1" fill-rule="nonzero"/><path fill="#14df98" d="M 2.640625 12.339844 C 2.71875 12.21875 2.800781 12.113281 2.800781 11.976562 C 2.605469 12.101562 2.609375 12.023438 2.664062 11.886719 C 2.722656 11.753906 2.832031 11.566406 2.832031 11.460938 C 2.148438 11.988281 2.8125 11.894531 2.640625 12.339844 Z M 2.640625 12.339844 " fill-opacity="1" fill-rule="nonzero"/><path fill="#14df98" d="M 2.640625 12.339844 C 2.605469 12.394531 2.570312 12.453125 2.550781 12.519531 C 2.597656 12.449219 2.621094 12.390625 2.640625 12.339844 Z M 2.640625 12.339844 " fill-opacity="1" fill-rule="nonzero"/><path fill="#14df98" d="M 5.460938 8.402344 L 5.488281 8.40625 C 5.484375 8.398438 5.472656 8.398438 5.460938 8.402344 Z M 5.460938 8.402344 " fill-opacity="1" fill-rule="nonzero"/><g clip-path="url(#1ad953000c)"><path fill="#14df98" d="M 30.292969 17.722656 C 30.230469 17.550781 30.15625 17.351562 30.109375 17.160156 C 30.0625 16.96875 30.050781 16.78125 30.136719 16.625 L 29.835938 16.679688 C 29.835938 16.660156 29.832031 16.640625 29.832031 16.617188 C 29.804688 16.261719 29.789062 16.039062 29.789062 15.882812 C 29.789062 15.722656 29.796875 15.644531 29.8125 15.574219 C 29.824219 15.503906 29.84375 15.4375 29.84375 15.308594 C 29.847656 15.246094 29.84375 15.164062 29.835938 15.054688 C 29.824219 14.949219 29.804688 14.816406 29.777344 14.648438 C 29.777344 14.648438 29.664062 14.582031 29.550781 14.519531 C 29.519531 14.5 29.488281 14.484375 29.457031 14.46875 C 29.4375 14.394531 29.417969 14.320312 29.398438 14.25 C 29.402344 14.246094 29.402344 14.246094 29.402344 14.242188 C 29.390625 14.207031 29.378906 14.171875 29.363281 14.132812 C 29.164062 13.457031 28.910156 12.804688 28.601562 12.179688 C 28.554688 12.019531 28.480469 11.859375 28.367188 11.710938 C 28.367188 11.710938 28.367188 11.71875 28.371094 11.734375 C 28.21875 11.449219 28.054688 11.171875 27.878906 10.902344 C 27.898438 10.886719 27.914062 10.867188 27.929688 10.84375 C 27.816406 10.675781 27.683594 10.53125 27.539062 10.402344 C 26.488281 8.9375 25.128906 7.707031 23.554688 6.800781 C 23.554688 6.800781 23.554688 6.796875 23.554688 6.796875 C 23.554688 6.796875 23.554688 6.800781 23.550781 6.800781 C 23.425781 6.726562 23.300781 6.660156 23.171875 6.589844 C 23.21875 6.539062 23.269531 6.484375 23.324219 6.429688 C 23.59375 6.15625 23.871094 5.859375 23.324219 5.628906 C 23.535156 5.882812 23.4375 6.105469 23.25 6.238281 C 23.066406 6.367188 22.800781 6.402344 22.628906 6.28125 C 22.632812 6.289062 22.632812 6.304688 22.632812 6.320312 C 22.554688 6.285156 22.480469 6.25 22.40625 6.21875 C 22.585938 6.15625 22.617188 6.042969 22.554688 5.925781 C 22.484375 5.800781 22.304688 5.671875 22.089844 5.628906 C 22.179688 5.671875 22.25 5.71875 22.304688 5.773438 C 22.355469 5.828125 22.394531 5.886719 22.414062 5.941406 C 22.453125 6.042969 22.441406 6.140625 22.382812 6.207031 C 22.269531 6.15625 22.152344 6.109375 22.039062 6.058594 C 22.011719 6.042969 21.988281 6.023438 21.964844 6.007812 C 22 5.992188 22.039062 5.964844 22.085938 5.921875 C 22.214844 5.710938 22 5.476562 21.691406 5.253906 C 21.535156 5.144531 21.359375 5.03125 21.195312 4.925781 C 21.03125 4.824219 20.878906 4.722656 20.777344 4.617188 C 20.558594 4.585938 20.4375 4.625 20.351562 4.6875 C 20.265625 4.75 20.210938 4.847656 20.117188 4.96875 C 20.09375 4.824219 19.980469 4.703125 19.859375 4.589844 C 19.742188 4.480469 19.621094 4.367188 19.589844 4.222656 C 19.34375 4.273438 19.140625 4.277344 18.953125 4.246094 C 18.769531 4.214844 18.601562 4.148438 18.429688 4.097656 C 18.257812 4.046875 18.085938 3.992188 17.894531 3.976562 C 17.839844 3.972656 17.777344 3.976562 17.71875 3.980469 C 17.71875 3.980469 17.714844 3.984375 17.707031 3.980469 C 17.570312 3.996094 17.429688 4.027344 17.277344 4.09375 C 17.234375 4.039062 17.222656 4 17.222656 3.972656 C 17.183594 3.972656 17.160156 3.972656 17.160156 3.972656 L 17.210938 4.03125 C 17.042969 4.132812 16.84375 4.183594 16.625 4.207031 C 16.550781 4.214844 16.472656 4.21875 16.394531 4.222656 C 16.464844 4.242188 16.53125 4.265625 16.597656 4.292969 C 16.644531 4.3125 16.6875 4.332031 16.730469 4.355469 C 16.605469 4.363281 16.453125 4.386719 16.296875 4.402344 C 16.074219 4.425781 15.855469 4.460938 15.730469 4.480469 C 15.710938 4.445312 15.683594 4.402344 15.65625 4.355469 C 15.609375 4.277344 15.5625 4.195312 15.546875 4.175781 C 15.347656 4.148438 15.160156 4.109375 15.011719 4.070312 C 15.109375 4.113281 15.191406 4.167969 15.234375 4.234375 C 15.265625 4.28125 15.273438 4.328125 15.257812 4.375 C 15.222656 4.375 15.191406 4.378906 15.15625 4.378906 C 15.085938 4.386719 15.011719 4.386719 14.941406 4.390625 C 14.925781 4.375 14.910156 4.359375 14.890625 4.34375 C 14.792969 4.253906 14.691406 4.160156 14.691406 4.160156 C 14.691406 4.160156 14.644531 4.210938 14.574219 4.28125 C 14.539062 4.320312 14.496094 4.363281 14.453125 4.410156 C 14.207031 4.421875 13.964844 4.4375 13.726562 4.445312 C 13.417969 4.46875 13.121094 4.5 12.847656 4.546875 C 12.617188 4.59375 12.40625 4.648438 12.214844 4.722656 C 12.300781 4.648438 12.414062 4.601562 12.527344 4.566406 C 12.71875 4.5 12.898438 4.441406 12.902344 4.265625 C 12.828125 4.128906 12.441406 4.160156 12.296875 4.105469 C 12.328125 4.417969 12.136719 4.507812 11.988281 4.589844 C 11.839844 4.671875 11.742188 4.742188 11.976562 5.027344 C 11.960938 5.078125 11.964844 5.117188 12 5.140625 C 11.910156 5.167969 11.820312 5.191406 11.734375 5.21875 C 11.6875 5.230469 11.640625 5.246094 11.597656 5.257812 C 11.613281 5.265625 11.632812 5.269531 11.65625 5.269531 C 11.742188 5.277344 11.855469 5.242188 12.027344 5.152344 C 12.085938 5.171875 12.195312 5.167969 12.382812 5.125 C 12.160156 5.34375 11.871094 5.417969 11.554688 5.421875 C 11.4375 5.429688 11.3125 5.425781 11.1875 5.421875 C 11.214844 5.40625 11.242188 5.390625 11.269531 5.378906 C 11.382812 5.328125 11.492188 5.292969 11.597656 5.257812 C 11.535156 5.242188 11.488281 5.207031 11.4375 5.171875 C 11.3125 5.078125 11.167969 4.972656 10.746094 5.214844 C 10.746094 5.214844 10.742188 5.300781 10.734375 5.402344 C 10.695312 5.402344 10.65625 5.398438 10.617188 5.402344 C 10.617188 5.402344 10.636719 5.367188 10.667969 5.316406 C 10.699219 5.265625 10.738281 5.199219 10.78125 5.132812 C 10.867188 5 10.957031 4.867188 10.957031 4.867188 C 10.191406 5.128906 9.3125 5.304688 8.476562 5.601562 C 7.648438 5.898438 6.867188 6.300781 6.371094 6.882812 L 6.765625 7 C 6.699219 7.054688 6.632812 7.109375 6.566406 7.160156 C 6.5 7.210938 6.433594 7.265625 6.367188 7.316406 C 6.230469 7.417969 6.09375 7.515625 5.957031 7.605469 C 5.691406 7.796875 5.421875 7.96875 5.175781 8.140625 C 4.933594 8.320312 4.699219 8.480469 4.519531 8.65625 C 4.335938 8.828125 4.191406 9 4.101562 9.175781 C 4.636719 9.011719 4.566406 9.195312 4.359375 9.441406 C 4.308594 9.507812 4.25 9.578125 4.191406 9.648438 C 4.171875 9.65625 4.152344 9.664062 4.128906 9.667969 L 4.15625 9.6875 C 3.984375 9.886719 3.8125 10.085938 3.789062 10.199219 C 3.886719 10.125 3.984375 10.039062 4.082031 9.945312 C 4.144531 9.886719 4.203125 9.824219 4.265625 9.761719 L 4.382812 9.839844 C 4.125 10.140625 3.964844 10.324219 3.847656 10.4375 C 3.734375 10.550781 3.671875 10.601562 3.609375 10.640625 C 3.550781 10.683594 3.492188 10.714844 3.398438 10.804688 C 3.351562 10.847656 3.296875 10.910156 3.222656 10.992188 C 3.15625 11.074219 3.074219 11.179688 2.976562 11.320312 C 2.976562 11.320312 3.011719 11.445312 3.042969 11.570312 C 3.0625 11.632812 3.078125 11.695312 3.09375 11.742188 C 3.105469 11.789062 3.117188 11.820312 3.117188 11.820312 C 3.144531 11.863281 3.175781 11.558594 3.257812 11.265625 C 3.332031 10.96875 3.480469 10.699219 3.675781 10.8125 C 3.660156 10.921875 3.640625 11.03125 3.613281 11.144531 C 3.585938 11.257812 3.5625 11.371094 3.53125 11.488281 C 3.5 11.601562 3.464844 11.71875 3.429688 11.835938 C 3.398438 11.957031 3.367188 12.078125 3.335938 12.195312 C 3.304688 12.316406 3.277344 12.4375 3.25 12.558594 C 3.226562 12.679688 3.207031 12.804688 3.195312 12.925781 C 3.179688 13.046875 3.167969 13.167969 3.167969 13.289062 C 3.164062 13.40625 3.175781 13.527344 3.191406 13.644531 C 3.191406 13.644531 3.046875 13.429688 2.910156 13.207031 C 2.828125 13.074219 2.75 12.941406 2.699219 12.851562 C 2.765625 13.023438 2.617188 13.175781 2.4375 13.382812 C 2.328125 13.503906 2.203125 13.640625 2.097656 13.804688 C 1.996094 13.96875 1.910156 14.164062 1.878906 14.386719 C 1.878906 14.386719 1.988281 14.214844 2.09375 14.039062 C 2.148438 13.953125 2.199219 13.867188 2.242188 13.804688 C 2.285156 13.738281 2.3125 13.699219 2.3125 13.699219 C 2.433594 13.898438 2.476562 14.125 2.460938 14.371094 C 2.441406 14.617188 2.390625 14.890625 2.324219 15.171875 C 2.308594 15.242188 2.292969 15.3125 2.277344 15.382812 C 2.261719 15.457031 2.25 15.527344 2.238281 15.601562 C 2.210938 15.746094 2.1875 15.890625 2.175781 16.035156 C 2.148438 16.324219 2.167969 16.609375 2.253906 16.859375 C 2.277344 16.589844 2.300781 16.324219 2.519531 16.296875 C 2.539062 16.324219 2.554688 16.351562 2.566406 16.378906 C 2.5625 16.480469 2.570312 16.5 2.59375 16.488281 C 2.609375 16.59375 2.601562 16.722656 2.578125 16.859375 C 2.542969 17.085938 2.476562 17.328125 2.40625 17.511719 C 2.378906 17.507812 2.351562 17.5 2.328125 17.488281 C 2.296875 17.308594 2.3125 17.132812 2.4375 16.886719 C 2.4375 16.886719 2.328125 16.902344 2.21875 16.921875 C 2.109375 16.941406 2 16.960938 2 16.960938 C 2.003906 17 2.007812 17.042969 2.011719 17.082031 C 1.929688 16.851562 1.914062 16.566406 1.894531 16.289062 C 1.871094 15.734375 1.894531 15.226562 1.570312 15.304688 C 1.515625 15.597656 1.515625 15.890625 1.5625 16.167969 C 1.617188 16.445312 1.699219 16.707031 1.785156 16.953125 C 1.878906 17.195312 1.96875 17.421875 2.023438 17.628906 C 2.085938 17.835938 2.113281 18.023438 2.070312 18.199219 C 2.070312 18.199219 1.953125 18.0625 1.835938 17.921875 C 1.777344 17.851562 1.71875 17.777344 1.675781 17.726562 C 1.632812 17.671875 1.605469 17.632812 1.605469 17.632812 C 1.605469 17.632812 1.613281 17.667969 1.628906 17.722656 C 1.644531 17.777344 1.664062 17.847656 1.683594 17.917969 C 1.722656 18.054688 1.761719 18.195312 1.761719 18.195312 L 1.792969 18.03125 C 1.976562 18.144531 1.96875 18.320312 1.9375 18.527344 C 1.914062 18.734375 1.859375 18.96875 1.933594 19.1875 C 1.933594 19.1875 1.816406 19.121094 1.695312 19.058594 C 1.574219 18.992188 1.457031 18.925781 1.457031 18.925781 C 1.457031 18.925781 1.460938 18.980469 1.464844 19.058594 C 1.472656 19.140625 1.472656 19.246094 1.488281 19.351562 C 1.511719 19.5625 1.535156 19.773438 1.535156 19.773438 L 1.644531 19.652344 C 2.015625 20.976562 2.234375 22.101562 2.414062 23.367188 C 2.414062 23.367188 2.40625 23.320312 2.398438 23.25 C 2.390625 23.179688 2.378906 23.085938 2.371094 22.992188 C 2.359375 22.804688 2.34375 22.617188 2.34375 22.617188 C 2.453125 22.644531 2.597656 23.007812 2.664062 23.339844 C 2.777344 23.242188 2.722656 23 2.699219 22.769531 C 2.671875 22.578125 2.652344 22.402344 2.71875 22.347656 C 2.777344 22.679688 2.847656 23.011719 2.933594 23.339844 C 2.941406 23.417969 2.941406 23.492188 2.945312 23.570312 C 2.949219 23.746094 2.960938 23.921875 2.980469 24.128906 C 2.992188 24.230469 3.007812 24.34375 3.03125 24.464844 C 3.054688 24.585938 3.089844 24.714844 3.132812 24.859375 C 3.210938 24.871094 3.269531 24.738281 3.34375 24.609375 C 3.425781 24.828125 3.515625 25.042969 3.613281 25.257812 C 3.539062 25.308594 3.425781 25.304688 3.230469 25.191406 C 3.5625 25.488281 3.570312 25.660156 3.59375 25.8125 C 3.617188 25.957031 3.65625 26.078125 4.03125 26.234375 C 3.964844 26.179688 3.917969 26.0625 3.871094 25.945312 C 3.882812 25.914062 3.894531 25.890625 3.910156 25.875 C 4.066406 26.179688 4.238281 26.480469 4.417969 26.773438 C 4.425781 27.019531 4.472656 27.269531 4.683594 27.597656 C 4.683594 27.597656 4.746094 27.652344 4.84375 27.734375 C 4.941406 27.816406 5.078125 27.921875 5.210938 28.023438 C 5.3125 28.105469 5.414062 28.183594 5.503906 28.25 C 5.574219 28.332031 5.644531 28.410156 5.714844 28.492188 C 5.679688 28.519531 5.636719 28.527344 5.636719 28.527344 C 5.761719 28.628906 5.878906 28.734375 6 28.839844 C 6.121094 28.945312 6.242188 29.050781 6.359375 29.160156 C 6.378906 29.179688 6.398438 29.199219 6.417969 29.214844 C 6.445312 29.242188 6.472656 29.269531 6.503906 29.296875 C 6.511719 29.355469 6.546875 29.414062 6.632812 29.460938 C 6.667969 29.480469 6.699219 29.492188 6.730469 29.503906 C 6.730469 29.503906 6.734375 29.507812 6.738281 29.511719 C 6.847656 29.609375 6.953125 29.703125 7.058594 29.796875 C 7.289062 30 7.523438 30.1875 7.75 30.34375 C 7.832031 30.398438 7.914062 30.449219 7.996094 30.496094 C 8.324219 30.722656 8.664062 30.929688 9.007812 31.121094 C 9.007812 31.125 9.007812 31.125 9.007812 31.128906 C 9.035156 31.144531 9.066406 31.15625 9.09375 31.167969 C 9.242188 31.25 9.390625 31.324219 9.539062 31.398438 C 9.417969 31.421875 9.316406 31.445312 9.316406 31.445312 C 10.042969 31.796875 10.792969 32.289062 11.59375 32.664062 C 12.390625 33.039062 13.230469 33.300781 13.996094 33.238281 L 13.796875 32.878906 C 13.882812 32.882812 13.96875 32.894531 14.054688 32.90625 C 14.140625 32.914062 14.222656 32.921875 14.308594 32.933594 C 14.476562 32.957031 14.640625 32.984375 14.800781 33.015625 C 15.128906 33.066406 15.441406 33.136719 15.738281 33.1875 C 16.035156 33.230469 16.3125 33.28125 16.566406 33.285156 C 16.820312 33.289062 17.046875 33.273438 17.230469 33.210938 C 16.738281 32.949219 16.917969 32.871094 17.242188 32.839844 C 17.566406 32.792969 18.046875 32.796875 18.183594 32.703125 C 18.058594 32.691406 17.929688 32.679688 17.796875 32.675781 C 17.660156 32.675781 17.523438 32.679688 17.386719 32.6875 C 17.109375 32.710938 16.828125 32.730469 16.578125 32.761719 C 16.144531 32.804688 15.796875 32.839844 15.722656 32.800781 L 15.75 32.84375 C 15.75 32.84375 15.636719 32.855469 15.46875 32.863281 C 15.296875 32.871094 15.066406 32.882812 14.835938 32.886719 C 14.605469 32.886719 14.375 32.886719 14.203125 32.882812 C 14.117188 32.882812 14.042969 32.882812 13.992188 32.878906 C 13.945312 32.875 13.914062 32.875 13.914062 32.875 L 13.972656 32.652344 C 15.46875 32.792969 16.984375 32.671875 18.445312 32.285156 C 18.445312 32.285156 18.445312 32.289062 18.445312 32.289062 C 18.445312 32.289062 18.445312 32.285156 18.445312 32.285156 C 18.585938 32.246094 18.726562 32.207031 18.867188 32.164062 C 18.871094 32.234375 18.871094 32.308594 18.871094 32.382812 C 18.878906 32.769531 18.890625 33.171875 19.441406 32.953125 C 19.113281 32.921875 19.023438 32.695312 19.0625 32.472656 C 19.097656 32.246094 19.261719 32.039062 19.472656 32.003906 C 19.460938 32 19.449219 31.988281 19.441406 31.976562 C 19.519531 31.949219 19.597656 31.921875 19.675781 31.890625 C 19.589844 32.0625 19.648438 32.164062 19.777344 32.203125 C 19.882812 32.230469 20.039062 32.214844 20.191406 32.152344 C 20.363281 32.199219 20.308594 32.246094 20.179688 32.300781 C 20.042969 32.351562 19.832031 32.410156 19.757812 32.484375 C 20.5 32.574219 20.203125 32.292969 20.386719 32.085938 C 20.519531 32.109375 20.6875 32.097656 20.867188 32.070312 C 21.054688 32.039062 21.257812 31.996094 21.449219 31.957031 C 21.605469 31.917969 21.757812 31.890625 21.886719 31.882812 C 21.835938 31.9375 21.816406 32.039062 21.835938 32.207031 C 21.835938 32.207031 22.011719 32.160156 22.183594 32.113281 C 22.273438 32.085938 22.359375 32.0625 22.425781 32.046875 C 22.492188 32.027344 22.535156 32.015625 22.535156 32.015625 C 22.628906 32.304688 22.671875 32.449219 22.226562 32.5625 C 22.371094 32.644531 22.703125 32.347656 22.894531 32.207031 L 22.726562 32.238281 C 22.785156 32.117188 22.9375 31.980469 23.058594 31.859375 C 22.75 31.953125 22.414062 31.871094 22.175781 31.832031 C 22.121094 31.828125 22.074219 31.824219 22.03125 31.828125 C 22.15625 31.714844 22.203125 31.621094 22.21875 31.53125 C 22.234375 31.425781 22.203125 31.320312 22.183594 31.167969 C 22.300781 31.253906 22.46875 31.261719 22.632812 31.253906 C 22.792969 31.25 22.960938 31.246094 23.085938 31.324219 C 23.222656 31.117188 23.363281 30.972656 23.519531 30.863281 C 23.671875 30.753906 23.839844 30.683594 23.996094 30.597656 C 24.152344 30.515625 24.316406 30.433594 24.457031 30.3125 C 24.5 30.273438 24.542969 30.230469 24.582031 30.183594 C 24.582031 30.179688 24.582031 30.179688 24.589844 30.171875 C 24.675781 30.070312 24.753906 29.949219 24.816406 29.792969 C 24.882812 29.804688 24.917969 29.820312 24.9375 29.84375 C 24.964844 29.816406 24.980469 29.796875 24.980469 29.796875 L 24.902344 29.789062 C 24.949219 29.601562 25.054688 29.425781 25.191406 29.257812 C 25.238281 29.199219 25.289062 29.140625 25.34375 29.082031 C 25.28125 29.117188 25.21875 29.148438 25.152344 29.175781 C 24.832031 29.304688 24.507812 29.378906 24.191406 29.414062 C 24 29.4375 23.816406 29.457031 23.648438 29.476562 C 23.796875 29.34375 23.945312 29.203125 24.09375 29.058594 C 24.179688 29.121094 24.265625 29.179688 24.265625 29.179688 C 24.402344 29.023438 24.519531 28.863281 24.625 28.695312 C 24.726562 28.535156 24.808594 28.359375 24.894531 28.1875 C 25.175781 27.855469 25.433594 27.511719 25.675781 27.160156 L 25.730469 27.199219 C 25.726562 27.15625 25.808594 27.050781 25.941406 26.882812 C 26.007812 26.800781 26.089844 26.703125 26.183594 26.597656 C 26.273438 26.488281 26.375 26.363281 26.484375 26.234375 C 26.488281 26.230469 26.488281 26.222656 26.492188 26.21875 C 27.429688 25.222656 28.203125 24.074219 28.769531 22.8125 C 28.777344 22.808594 28.78125 22.808594 28.785156 22.804688 C 28.847656 22.757812 28.914062 22.710938 28.953125 22.722656 C 28.996094 22.730469 29.015625 22.800781 28.96875 22.984375 C 28.976562 23.089844 29.039062 22.816406 29.042969 22.503906 C 29.050781 22.390625 29.046875 22.277344 29.039062 22.171875 C 29.078125 22.078125 29.113281 21.980469 29.148438 21.882812 C 29.210938 22.015625 29.339844 22.089844 29.582031 22.074219 C 29.597656 21.71875 29.582031 21.425781 29.484375 21.316406 L 29.570312 21.382812 C 29.570312 21.382812 29.519531 21.214844 29.429688 20.988281 C 29.484375 20.785156 29.535156 20.582031 29.582031 20.375 C 29.6875 20.5625 29.8125 20.675781 29.996094 20.578125 C 29.996094 20.578125 29.917969 20.414062 29.839844 20.25 C 29.800781 20.171875 29.757812 20.089844 29.726562 20.03125 C 29.695312 19.972656 29.671875 19.929688 29.671875 19.929688 C 30.042969 20.15625 29.941406 19.304688 30.222656 19.460938 C 30.222656 19.460938 30.214844 19.433594 30.207031 19.386719 C 30.195312 19.335938 30.179688 19.269531 30.164062 19.183594 C 30.125 19.019531 30.085938 18.796875 30.027344 18.582031 C 29.96875 18.371094 29.917969 18.167969 29.871094 18.011719 C 29.875 17.90625 29.875 17.796875 29.875 17.691406 L 30.136719 17.621094 C 30.136719 17.621094 30.109375 17.734375 30.078125 17.847656 C 30.0625 17.902344 30.050781 17.957031 30.039062 18 C 30.027344 18.039062 30.015625 18.070312 30.015625 18.070312 C 30.238281 18.171875 30.335938 18.171875 30.363281 18.097656 C 30.394531 18.03125 30.355469 17.890625 30.292969 17.722656 Z M 4.5625 12.4375 C 4.601562 12.320312 4.640625 12.203125 4.671875 12.085938 C 4.675781 12.0625 4.683594 12.035156 4.6875 12.011719 C 4.789062 11.941406 4.882812 11.972656 4.960938 12.207031 C 4.960938 12.207031 4.8125 12.34375 4.664062 12.480469 C 4.585938 12.558594 4.507812 12.636719 4.453125 12.691406 C 4.496094 12.605469 4.53125 12.523438 4.5625 12.4375 Z M 4.765625 11.664062 C 4.785156 11.582031 4.804688 11.5 4.828125 11.421875 C 4.84375 11.359375 4.859375 11.300781 4.878906 11.242188 C 4.910156 11.4375 4.859375 11.566406 4.765625 11.664062 Z M 5.460938 11.835938 C 5.519531 11.832031 5.585938 11.839844 5.664062 11.871094 C 5.589844 11.953125 5.519531 12.039062 5.449219 12.121094 C 5.449219 12.070312 5.453125 12.019531 5.453125 11.964844 C 5.457031 11.921875 5.460938 11.878906 5.460938 11.835938 Z M 3.703125 14.671875 C 3.722656 14.523438 3.71875 14.355469 3.710938 14.179688 C 3.707031 13.957031 3.683594 13.726562 3.675781 13.519531 C 3.675781 13.492188 3.675781 13.46875 3.675781 13.441406 C 3.707031 13.375 3.742188 13.316406 3.777344 13.273438 C 3.742188 13.28125 3.710938 13.296875 3.679688 13.3125 C 3.6875 13.195312 3.703125 13.089844 3.730469 13.007812 C 3.75 13.078125 3.851562 12.9375 3.972656 12.785156 C 4.09375 12.828125 4.214844 12.65625 4.339844 12.457031 C 4.390625 12.464844 4.417969 12.546875 4.40625 12.738281 C 4.390625 12.753906 4.378906 12.765625 4.378906 12.765625 C 4.390625 12.765625 4.394531 12.765625 4.40625 12.765625 C 4.402344 12.773438 4.402344 12.785156 4.402344 12.796875 C 4.410156 12.785156 4.414062 12.773438 4.417969 12.761719 C 4.628906 12.75 4.761719 12.679688 4.863281 12.578125 C 4.976562 12.472656 5.042969 12.335938 5.109375 12.203125 C 5.167969 12.085938 5.222656 11.976562 5.300781 11.910156 C 5.296875 11.917969 5.296875 11.925781 5.292969 11.933594 C 5.257812 12.035156 5.226562 12.148438 5.191406 12.257812 C 5.164062 12.355469 5.132812 12.453125 5.105469 12.546875 C 5.054688 12.617188 5 12.6875 4.949219 12.753906 C 4.933594 12.757812 4.921875 12.761719 4.910156 12.761719 C 4.910156 12.777344 4.914062 12.789062 4.917969 12.800781 C 4.46875 13.414062 4.085938 14.058594 3.761719 14.726562 C 3.742188 14.710938 3.722656 14.691406 3.703125 14.671875 Z M 29.617188 14.882812 C 29.765625 15.128906 29.851562 15.402344 29.683594 15.484375 C 29.636719 15.230469 29.585938 14.980469 29.523438 14.734375 C 29.554688 14.78125 29.585938 14.832031 29.617188 14.882812 Z M 21.953125 6.027344 C 21.945312 6.023438 21.9375 6.019531 21.929688 6.015625 C 21.933594 6.015625 21.9375 6.015625 21.941406 6.015625 C 21.945312 6.019531 21.949219 6.023438 21.953125 6.027344 Z M 21.640625 5.765625 C 21.625 5.757812 21.609375 5.746094 21.59375 5.734375 C 21.59375 5.734375 21.613281 5.75 21.644531 5.773438 C 21.652344 5.785156 21.664062 5.800781 21.671875 5.816406 C 21.703125 5.867188 21.738281 5.917969 21.773438 5.957031 C 21.625 5.898438 21.476562 5.84375 21.324219 5.792969 C 21.46875 5.585938 21.558594 5.652344 21.640625 5.765625 Z M 15.6875 4.488281 C 15.648438 4.496094 15.625 4.5 15.625 4.5 C 15.609375 4.480469 15.605469 4.457031 15.605469 4.433594 C 15.632812 4.453125 15.664062 4.472656 15.6875 4.488281 Z M 15.40625 4.304688 C 15.40625 4.304688 15.441406 4.328125 15.488281 4.359375 C 15.460938 4.363281 15.433594 4.363281 15.402344 4.367188 C 15.40625 4.347656 15.40625 4.328125 15.40625 4.304688 Z M 8.625 6.019531 C 8.59375 6.042969 8.566406 6.066406 8.539062 6.089844 C 8.535156 6.082031 8.527344 6.078125 8.523438 6.070312 C 8.554688 6.050781 8.589844 6.035156 8.625 6.019531 Z M 7.816406 6.632812 C 7.898438 6.609375 7.980469 6.585938 8.058594 6.566406 C 7.984375 6.660156 7.941406 6.742188 7.933594 6.808594 L 7.917969 6.703125 C 7.917969 6.703125 7.832031 6.867188 7.730469 7.097656 C 7.628906 7.332031 7.535156 7.648438 7.492188 7.933594 C 7.558594 7.746094 7.691406 7.574219 7.839844 7.414062 C 7.996094 7.261719 8.167969 7.121094 8.308594 6.988281 C 8.527344 6.789062 8.671875 6.597656 8.558594 6.386719 C 8.644531 6.324219 8.664062 6.246094 8.585938 6.140625 C 8.71875 6.101562 8.820312 6.046875 8.910156 5.96875 C 9.054688 5.984375 9.171875 6.050781 9.25 6.140625 C 9.199219 6.183594 9.144531 6.226562 9.089844 6.277344 C 8.855469 6.488281 8.636719 6.765625 8.6875 6.878906 C 8.796875 6.859375 8.894531 6.675781 9.023438 6.550781 C 9.148438 6.425781 9.289062 6.339844 9.445312 6.492188 C 9.785156 6.300781 9.652344 6.28125 9.496094 6.25 C 9.507812 6.242188 9.515625 6.234375 9.53125 6.226562 C 9.640625 6.15625 9.789062 6.0625 9.941406 5.96875 C 10.089844 5.871094 10.242188 5.785156 10.359375 5.71875 C 10.476562 5.65625 10.554688 5.609375 10.554688 5.609375 C 10.757812 5.738281 10.617188 6.261719 10.457031 6.277344 C 10.328125 6.3125 10.191406 6.390625 10.046875 6.472656 C 9.90625 6.558594 9.753906 6.644531 9.601562 6.730469 C 9.296875 6.898438 8.976562 7.011719 8.644531 6.921875 C 8.507812 7.140625 8.65625 7.203125 8.734375 7.28125 C 8.8125 7.363281 8.816406 7.441406 8.429688 7.707031 C 7.875 7.792969 7.351562 8.039062 6.875 8.347656 C 6.890625 8.171875 6.996094 7.9375 7.085938 7.707031 C 7.222656 7.375 7.335938 7.0625 7.046875 6.972656 C 7.046875 6.972656 6.984375 7.140625 6.925781 7.3125 C 6.914062 7.34375 6.902344 7.378906 6.890625 7.410156 C 6.746094 7.007812 7.296875 6.773438 7.816406 6.632812 Z M 6.476562 7.277344 C 6.535156 7.21875 6.589844 7.167969 6.628906 7.136719 C 6.664062 7.101562 6.6875 7.082031 6.6875 7.082031 L 6.886719 7.421875 C 6.871094 7.46875 6.859375 7.511719 6.847656 7.546875 C 6.828125 7.613281 6.816406 7.65625 6.816406 7.65625 C 6.714844 7.257812 6.226562 7.847656 6.109375 7.640625 C 6.242188 7.507812 6.371094 7.378906 6.476562 7.277344 Z M 5.410156 8.394531 C 5.410156 8.394531 5.480469 8.304688 5.597656 8.183594 C 5.703125 8.066406 5.84375 7.914062 5.988281 7.757812 C 5.972656 7.785156 5.957031 7.808594 5.9375 7.839844 C 5.84375 7.984375 5.714844 8.167969 5.601562 8.363281 C 5.488281 8.558594 5.375 8.75 5.292969 8.898438 C 5.214844 9.046875 5.164062 9.144531 5.164062 9.144531 L 4.90625 9 C 4.949219 8.949219 4.992188 8.898438 5.03125 8.851562 C 5.035156 8.851562 5.039062 8.847656 5.042969 8.847656 C 5.09375 8.816406 5.144531 8.789062 5.179688 8.765625 C 5.21875 8.746094 5.246094 8.730469 5.246094 8.730469 C 5.230469 8.699219 5.21875 8.667969 5.207031 8.644531 C 5.328125 8.507812 5.414062 8.417969 5.460938 8.402344 Z M 2.960938 15.207031 C 3.191406 14.515625 3.132812 15.453125 3.402344 15.195312 C 3.464844 15.164062 3.515625 15.121094 3.554688 15.070312 C 3.558594 15.101562 3.558594 15.132812 3.558594 15.167969 C 3.464844 15.386719 3.375 15.609375 3.292969 15.835938 C 3.207031 15.871094 3.132812 15.839844 3.074219 15.761719 C 3.035156 15.703125 3 15.625 2.980469 15.53125 C 2.960938 15.433594 2.957031 15.324219 2.960938 15.207031 Z M 11.71875 32.234375 C 11.777344 32.25 11.835938 32.269531 11.894531 32.285156 C 11.894531 32.289062 11.894531 32.296875 11.894531 32.304688 C 11.828125 32.285156 11.769531 32.261719 11.71875 32.234375 Z M 13.050781 32.535156 C 13.328125 32.582031 13.601562 32.617188 13.882812 32.644531 C 13.6875 32.773438 13.367188 32.683594 13.050781 32.535156 Z M 20.167969 32.125 C 20.132812 32.132812 20.097656 32.136719 20.0625 32.136719 C 19.988281 32.132812 19.917969 32.121094 19.863281 32.09375 C 19.761719 32.050781 19.703125 31.972656 19.695312 31.882812 C 19.851562 31.824219 20 31.765625 20.152344 31.699219 C 20.128906 31.738281 20.113281 31.792969 20.109375 31.878906 C 20.132812 31.96875 20.191406 32.023438 20.273438 32.058594 C 20.238281 32.074219 20.203125 32.097656 20.167969 32.125 Z M 20.476562 31.660156 C 20.417969 31.648438 20.359375 31.636719 20.308594 31.632812 C 20.453125 31.570312 20.597656 31.503906 20.742188 31.433594 C 20.792969 31.714844 20.640625 31.699219 20.476562 31.660156 Z M 20.476562 31.660156 " fill-opacity="1" fill-rule="nonzero"/></g><path fill="#14df98" d="M 18.445312 32.289062 C 18.445312 32.34375 18.445312 32.382812 18.445312 32.382812 C 18.457031 32.347656 18.457031 32.316406 18.445312 32.289062 Z M 18.445312 32.289062 " fill-opacity="1" fill-rule="nonzero"/><g fill="#14df98" fill-opacity="1"><g transform="translate(31.280255, 24.609023)"><g><path d="M 2.070312 0.113281 C 2.277344 0.09375 2.460938 0 2.574219 -0.160156 C 2.738281 -0.414062 2.78125 -0.710938 2.851562 -0.988281 C 2.898438 -1.242188 2.945312 -1.519531 2.988281 -1.792969 C 3.035156 -2.046875 3.082031 -2.324219 3.152344 -2.574219 L 3.632812 -4.738281 C 3.976562 -6.371094 4.347656 -7.933594 4.828125 -9.519531 C 5.105469 -10.507812 5.3125 -11.496094 5.472656 -12.507812 C 5.496094 -12.714844 5.609375 -12.832031 5.816406 -12.878906 C 5.980469 -12.902344 6.164062 -12.945312 6.324219 -12.992188 C 6.484375 -13.039062 6.644531 -13.085938 6.808594 -13.128906 L 9.199219 -13.75 C 9.660156 -13.914062 10.117188 -13.933594 10.601562 -13.957031 C 10.691406 -13.957031 10.761719 -13.957031 10.808594 -13.933594 C 10.878906 -13.914062 10.898438 -13.867188 10.898438 -13.820312 L 10.832031 -13.566406 C 10.832031 -13.542969 10.832031 -13.523438 10.832031 -13.5 C 10.808594 -13.476562 10.808594 -13.429688 10.832031 -13.40625 C 10.898438 -13.246094 11.039062 -13.152344 11.246094 -13.152344 C 11.335938 -13.152344 11.40625 -13.175781 11.476562 -13.246094 C 11.496094 -13.292969 11.542969 -13.335938 11.589844 -13.40625 C 11.613281 -13.453125 11.660156 -13.5 11.683594 -13.566406 C 11.796875 -13.75 11.75 -13.933594 11.589844 -14.097656 C 11.3125 -14.347656 11.015625 -14.488281 10.671875 -14.535156 C 10.554688 -14.554688 10.441406 -14.554688 10.324219 -14.554688 C 10.210938 -14.554688 10.09375 -14.554688 9.980469 -14.554688 C 9.40625 -14.554688 8.875 -14.417969 8.324219 -14.257812 C 8.117188 -14.1875 7.886719 -14.140625 7.679688 -14.074219 C 7.449219 -14.003906 7.222656 -13.933594 6.992188 -13.867188 L 5.839844 -13.542969 C 5.816406 -13.542969 5.796875 -13.542969 5.796875 -13.542969 C 5.773438 -13.523438 5.75 -13.523438 5.726562 -13.523438 C 5.632812 -13.523438 5.566406 -13.542969 5.496094 -13.613281 L 5.359375 -13.730469 C 5.265625 -13.773438 5.175781 -13.796875 5.105469 -13.796875 C 4.988281 -13.796875 4.875 -13.707031 4.804688 -13.523438 C 4.78125 -13.523438 4.78125 -13.5 4.78125 -13.476562 C 4.738281 -13.335938 4.621094 -13.246094 4.4375 -13.175781 L 3.128906 -12.832031 C 2.691406 -12.738281 2.230469 -12.671875 1.863281 -12.671875 L 1.402344 -12.671875 C 1.289062 -12.671875 1.195312 -12.695312 1.082031 -12.714844 C 0.691406 -12.761719 0.507812 -12.992188 0.507812 -13.382812 C 0.507812 -13.542969 0.527344 -13.660156 0.550781 -13.820312 C 0.574219 -13.980469 0.597656 -14.074219 0.597656 -14.234375 C 0.597656 -14.304688 0.574219 -14.371094 0.507812 -14.417969 L 0.34375 -14.488281 C 0.320312 -14.511719 0.277344 -14.511719 0.207031 -14.511719 C -0.136719 -14.511719 -0.253906 -13.957031 -0.320312 -13.707031 C -0.390625 -13.359375 -0.300781 -13.0625 -0.046875 -12.832031 C 0.367188 -12.371094 1.519531 -12.097656 2.09375 -12.097656 C 2.714844 -12.097656 3.335938 -12.210938 3.910156 -12.371094 C 3.976562 -12.394531 4.023438 -12.417969 4.09375 -12.417969 C 4.164062 -12.417969 4.207031 -12.417969 4.277344 -12.441406 C 4.347656 -12.441406 4.390625 -12.394531 4.390625 -12.324219 C 4.371094 -12.304688 4.371094 -12.257812 4.371094 -12.234375 C 4.371094 -12.1875 4.371094 -12.140625 4.347656 -12.117188 C 4.183594 -11.40625 4.023438 -10.738281 3.839844 -10.070312 C 3.496094 -8.96875 3.195312 -7.839844 2.945312 -6.738281 L 2.253906 -3.726562 C 2.046875 -2.828125 1.910156 -1.976562 1.746094 -1.082031 C 1.726562 -0.917969 1.703125 -0.734375 1.703125 -0.574219 C 1.703125 -0.414062 1.746094 -0.230469 1.816406 -0.0703125 C 1.886719 0.046875 1.953125 0.113281 2.070312 0.113281 Z M 2.070312 0.113281 "/></g></g></g><g fill="#14df98" fill-opacity="1"><g transform="translate(37.027862, 24.609023)"><g><path d="M 2 -2.277344 C 2.484375 -2.277344 2.804688 -2.300781 3.082031 -2.738281 C 3.152344 -2.804688 3.171875 -2.851562 3.195312 -2.921875 C 3.472656 -3.449219 3.585938 -4.046875 3.5625 -4.691406 C 3.519531 -5.21875 3.355469 -5.679688 3.082031 -6.117188 C 2.964844 -6.277344 2.875 -6.414062 2.78125 -6.578125 C 2.738281 -6.667969 2.757812 -6.738281 2.851562 -6.785156 C 3.152344 -6.808594 3.449219 -6.828125 3.839844 -6.828125 C 4.09375 -6.828125 4.371094 -6.828125 4.691406 -6.828125 C 4.988281 -6.808594 5.359375 -6.808594 5.773438 -6.808594 C 5.886719 -6.828125 5.910156 -6.898438 5.839844 -7.015625 C 5.773438 -7.105469 5.632812 -7.175781 5.472656 -7.222656 C 5.011719 -7.242188 4.507812 -7.265625 4.046875 -7.265625 C 3.5625 -7.265625 3.128906 -7.242188 2.757812 -7.222656 C 2.367188 -7.175781 2.160156 -7.105469 2.136719 -7.035156 C 2.023438 -7.015625 1.976562 -6.875 2.046875 -6.785156 C 2.160156 -6.578125 2.300781 -6.371094 2.414062 -6.1875 C 2.898438 -5.425781 2.964844 -4.644531 2.714844 -3.792969 C 2.691406 -3.679688 2.644531 -3.585938 2.597656 -3.496094 C 2.53125 -3.402344 2.484375 -3.3125 2.4375 -3.21875 C 2.324219 -3.035156 2.207031 -2.898438 2.070312 -2.828125 C 2 -2.78125 1.953125 -2.757812 1.886719 -2.757812 C 1.816406 -2.757812 1.746094 -2.78125 1.679688 -2.851562 C 1.539062 -2.964844 1.425781 -3.105469 1.3125 -3.3125 C 1.105469 -3.679688 1.035156 -4.09375 1.058594 -4.554688 C 1.125 -6 1.5625 -7.449219 2.667969 -8.441406 C 2.738281 -8.507812 2.714844 -8.601562 2.644531 -8.625 C 2.644531 -8.644531 2.621094 -8.644531 2.597656 -8.644531 C 2.484375 -8.691406 2.367188 -8.714844 2.230469 -8.714844 C 2.023438 -8.714844 1.839844 -8.644531 1.679688 -8.507812 C 0.667969 -7.726562 0.09375 -5.980469 0.0234375 -4.714844 L 0.0234375 -4.484375 C 0.0234375 -4.460938 0.0234375 -4.414062 0.046875 -4.390625 C 0.046875 -4.347656 0.046875 -4.300781 0.046875 -4.277344 C 0.160156 -3.335938 0.667969 -2.714844 1.519531 -2.390625 C 1.585938 -2.367188 1.679688 -2.34375 1.769531 -2.324219 C 1.839844 -2.300781 1.933594 -2.300781 2 -2.277344 Z M 2 -2.277344 "/></g></g></g><g fill="#14df98" fill-opacity="1"><g transform="translate(41.740893, 24.609023)"><g><path d="M 5.402344 -1.378906 C 5.566406 -1.378906 5.679688 -1.425781 5.773438 -1.539062 C 5.933594 -1.703125 6.046875 -1.886719 6.164062 -2.070312 C 6.507812 -2.597656 6.785156 -3.152344 7.082031 -3.726562 C 7.335938 -4.183594 7.566406 -4.644531 7.796875 -5.128906 C 8.027344 -5.589844 8.253906 -6.046875 8.484375 -6.507812 C 8.507812 -6.554688 8.554688 -6.601562 8.578125 -6.667969 C 8.601562 -6.714844 8.625 -6.761719 8.644531 -6.808594 L 8.667969 -6.898438 C 8.714844 -6.992188 8.691406 -7.058594 8.578125 -7.128906 C 8.53125 -7.152344 8.460938 -7.175781 8.394531 -7.175781 C 8.300781 -7.175781 8.210938 -7.128906 8.140625 -7.035156 L 7.910156 -6.621094 C 7.613281 -6.046875 7.3125 -5.496094 7.015625 -4.875 C 6.621094 -4.117188 6.230469 -3.355469 5.75 -2.621094 C 5.679688 -2.53125 5.632812 -2.4375 5.566406 -2.367188 C 5.519531 -2.324219 5.472656 -2.300781 5.425781 -2.324219 C 5.382812 -2.324219 5.359375 -2.34375 5.359375 -2.390625 C 5.359375 -2.484375 5.359375 -2.574219 5.359375 -2.667969 C 5.359375 -2.738281 5.359375 -2.828125 5.382812 -2.898438 C 5.425781 -3.105469 5.472656 -3.335938 5.519531 -3.5625 C 5.542969 -3.769531 5.589844 -4 5.65625 -4.207031 C 5.773438 -4.714844 5.910156 -5.21875 6.070312 -5.726562 C 6.207031 -6.230469 6.347656 -6.738281 6.484375 -7.242188 C 6.507812 -7.382812 6.554688 -7.519531 6.601562 -7.679688 C 6.644531 -7.820312 6.691406 -7.957031 6.714844 -8.117188 C 6.785156 -8.347656 6.808594 -8.601562 6.808594 -8.875 C 6.785156 -9.152344 6.460938 -9.359375 6.207031 -9.359375 C 5.933594 -9.359375 5.566406 -8.992188 5.402344 -8.785156 C 4.875 -8.234375 4.4375 -7.613281 4.046875 -6.992188 L 3.65625 -6.394531 C 3.585938 -6.324219 3.542969 -6.253906 3.519531 -6.230469 C 3.519531 -6.207031 3.496094 -6.207031 3.425781 -6.207031 L 3.402344 -6.253906 L 3.402344 -7.082031 C 3.378906 -7.359375 3.082031 -7.542969 2.828125 -7.542969 C 2.714844 -7.542969 2.597656 -7.472656 2.507812 -7.359375 L 2.160156 -6.945312 L 1.332031 -5.679688 L 1.289062 -5.679688 C 1.265625 -5.679688 1.265625 -5.679688 1.242188 -5.703125 C 1.171875 -5.886719 1.21875 -6.023438 1.289062 -6.1875 C 1.402344 -6.714844 1.519531 -7.199219 1.609375 -7.726562 C 1.65625 -7.910156 1.679688 -8.09375 1.679688 -8.300781 C 1.703125 -8.460938 1.609375 -8.554688 1.449219 -8.625 C 1.425781 -8.644531 1.378906 -8.644531 1.3125 -8.644531 C 1.195312 -8.644531 1.125 -8.601562 1.105469 -8.484375 C 1.035156 -8.347656 0.988281 -8.210938 0.941406 -8.070312 C 0.898438 -7.910156 0.851562 -7.773438 0.78125 -7.632812 C 0.527344 -6.828125 0.390625 -6.070312 0.230469 -5.265625 C 0.230469 -5.195312 0.230469 -5.128906 0.230469 -5.058594 C 0.207031 -4.988281 0.207031 -4.898438 0.230469 -4.828125 C 0.253906 -4.578125 0.367188 -4.414062 0.574219 -4.324219 C 0.597656 -4.300781 0.644531 -4.300781 0.667969 -4.300781 C 0.691406 -4.300781 0.710938 -4.300781 0.734375 -4.277344 C 0.78125 -4.253906 0.851562 -4.253906 0.917969 -4.253906 C 1.035156 -4.253906 1.125 -4.300781 1.21875 -4.414062 C 1.289062 -4.484375 1.332031 -4.578125 1.378906 -4.667969 C 1.425781 -4.738281 1.472656 -4.828125 1.539062 -4.921875 C 1.632812 -5.082031 1.726562 -5.265625 1.816406 -5.425781 C 1.886719 -5.589844 1.976562 -5.75 2.070312 -5.910156 C 2.117188 -5.980469 2.160156 -6.070312 2.230469 -6.140625 C 2.277344 -6.207031 2.324219 -6.277344 2.367188 -6.347656 C 2.390625 -6.371094 2.390625 -6.371094 2.414062 -6.371094 C 2.460938 -6.347656 2.484375 -6.324219 2.484375 -6.300781 C 2.484375 -6.140625 2.460938 -6.023438 2.4375 -5.863281 L 2.367188 -5.335938 C 2.34375 -5.035156 2.460938 -4.851562 2.738281 -4.738281 C 2.757812 -4.714844 2.804688 -4.714844 2.851562 -4.691406 C 2.898438 -4.667969 2.945312 -4.667969 2.988281 -4.644531 L 3.082031 -4.644531 C 3.378906 -4.644531 3.542969 -4.945312 3.703125 -5.195312 L 4.300781 -6.230469 C 4.484375 -6.621094 5.289062 -8.003906 5.65625 -8.234375 C 5.75 -8.253906 5.773438 -8.234375 5.726562 -8.164062 C 5.703125 -8.09375 5.679688 -8.027344 5.679688 -7.957031 C 5.65625 -7.886719 5.632812 -7.820312 5.609375 -7.75 C 4.988281 -6.1875 4.53125 -4.554688 4.371094 -2.898438 C 4.324219 -2.621094 4.347656 -2.34375 4.414062 -2.046875 C 4.460938 -1.792969 4.621094 -1.585938 4.875 -1.472656 C 5.035156 -1.378906 5.21875 -1.378906 5.402344 -1.378906 Z M 5.402344 -1.378906 "/></g></g></g><g fill="#14df98" fill-opacity="1"><g transform="translate(49.281751, 24.609023)"><g><path d="M 5.402344 -1.378906 C 5.566406 -1.378906 5.679688 -1.425781 5.773438 -1.539062 C 5.933594 -1.703125 6.046875 -1.886719 6.164062 -2.070312 C 6.507812 -2.597656 6.785156 -3.152344 7.082031 -3.726562 C 7.335938 -4.183594 7.566406 -4.644531 7.796875 -5.128906 C 8.027344 -5.589844 8.253906 -6.046875 8.484375 -6.507812 C 8.507812 -6.554688 8.554688 -6.601562 8.578125 -6.667969 C 8.601562 -6.714844 8.625 -6.761719 8.644531 -6.808594 L 8.667969 -6.898438 C 8.714844 -6.992188 8.691406 -7.058594 8.578125 -7.128906 C 8.53125 -7.152344 8.460938 -7.175781 8.394531 -7.175781 C 8.300781 -7.175781 8.210938 -7.128906 8.140625 -7.035156 L 7.910156 -6.621094 C 7.613281 -6.046875 7.3125 -5.496094 7.015625 -4.875 C 6.621094 -4.117188 6.230469 -3.355469 5.75 -2.621094 C 5.679688 -2.53125 5.632812 -2.4375 5.566406 -2.367188 C 5.519531 -2.324219 5.472656 -2.300781 5.425781 -2.324219 C 5.382812 -2.324219 5.359375 -2.34375 5.359375 -2.390625 C 5.359375 -2.484375 5.359375 -2.574219 5.359375 -2.667969 C 5.359375 -2.738281 5.359375 -2.828125 5.382812 -2.898438 C 5.425781 -3.105469 5.472656 -3.335938 5.519531 -3.5625 C 5.542969 -3.769531 5.589844 -4 5.65625 -4.207031 C 5.773438 -4.714844 5.910156 -5.21875 6.070312 -5.726562 C 6.207031 -6.230469 6.347656 -6.738281 6.484375 -7.242188 C 6.507812 -7.382812 6.554688 -7.519531 6.601562 -7.679688 C 6.644531 -7.820312 6.691406 -7.957031 6.714844 -8.117188 C 6.785156 -8.347656 6.808594 -8.601562 6.808594 -8.875 C 6.785156 -9.152344 6.460938 -9.359375 6.207031 -9.359375 C 5.933594 -9.359375 5.566406 -8.992188 5.402344 -8.785156 C 4.875 -8.234375 4.4375 -7.613281 4.046875 -6.992188 L 3.65625 -6.394531 C 3.585938 -6.324219 3.542969 -6.253906 3.519531 -6.230469 C 3.519531 -6.207031 3.496094 -6.207031 3.425781 -6.207031 L 3.402344 -6.253906 L 3.402344 -7.082031 C 3.378906 -7.359375 3.082031 -7.542969 2.828125 -7.542969 C 2.714844 -7.542969 2.597656 -7.472656 2.507812 -7.359375 L 2.160156 -6.945312 L 1.332031 -5.679688 L 1.289062 -5.679688 C 1.265625 -5.679688 1.265625 -5.679688 1.242188 -5.703125 C 1.171875 -5.886719 1.21875 -6.023438 1.289062 -6.1875 C 1.402344 -6.714844 1.519531 -7.199219 1.609375 -7.726562 C 1.65625 -7.910156 1.679688 -8.09375 1.679688 -8.300781 C 1.703125 -8.460938 1.609375 -8.554688 1.449219 -8.625 C 1.425781 -8.644531 1.378906 -8.644531 1.3125 -8.644531 C 1.195312 -8.644531 1.125 -8.601562 1.105469 -8.484375 C 1.035156 -8.347656 0.988281 -8.210938 0.941406 -8.070312 C 0.898438 -7.910156 0.851562 -7.773438 0.78125 -7.632812 C 0.527344 -6.828125 0.390625 -6.070312 0.230469 -5.265625 C 0.230469 -5.195312 0.230469 -5.128906 0.230469 -5.058594 C 0.207031 -4.988281 0.207031 -4.898438 0.230469 -4.828125 C 0.253906 -4.578125 0.367188 -4.414062 0.574219 -4.324219 C 0.597656 -4.300781 0.644531 -4.300781 0.667969 -4.300781 C 0.691406 -4.300781 0.710938 -4.300781 0.734375 -4.277344 C 0.78125 -4.253906 0.851562 -4.253906 0.917969 -4.253906 C 1.035156 -4.253906 1.125 -4.300781 1.21875 -4.414062 C 1.289062 -4.484375 1.332031 -4.578125 1.378906 -4.667969 C 1.425781 -4.738281 1.472656 -4.828125 1.539062 -4.921875 C 1.632812 -5.082031 1.726562 -5.265625 1.816406 -5.425781 C 1.886719 -5.589844 1.976562 -5.75 2.070312 -5.910156 C 2.117188 -5.980469 2.160156 -6.070312 2.230469 -6.140625 C 2.277344 -6.207031 2.324219 -6.277344 2.367188 -6.347656 C 2.390625 -6.371094 2.390625 -6.371094 2.414062 -6.371094 C 2.460938 -6.347656 2.484375 -6.324219 2.484375 -6.300781 C 2.484375 -6.140625 2.460938 -6.023438 2.4375 -5.863281 L 2.367188 -5.335938 C 2.34375 -5.035156 2.460938 -4.851562 2.738281 -4.738281 C 2.757812 -4.714844 2.804688 -4.714844 2.851562 -4.691406 C 2.898438 -4.667969 2.945312 -4.667969 2.988281 -4.644531 L 3.082031 -4.644531 C 3.378906 -4.644531 3.542969 -4.945312 3.703125 -5.195312 L 4.300781 -6.230469 C 4.484375 -6.621094 5.289062 -8.003906 5.65625 -8.234375 C 5.75 -8.253906 5.773438 -8.234375 5.726562 -8.164062 C 5.703125 -8.09375 5.679688 -8.027344 5.679688 -7.957031 C 5.65625 -7.886719 5.632812 -7.820312 5.609375 -7.75 C 4.988281 -6.1875 4.53125 -4.554688 4.371094 -2.898438 C 4.324219 -2.621094 4.347656 -2.34375 4.414062 -2.046875 C 4.460938 -1.792969 4.621094 -1.585938 4.875 -1.472656 C 5.035156 -1.378906 5.21875 -1.378906 5.402344 -1.378906 Z M 5.402344 -1.378906 "/></g></g></g><g fill="#14df98" fill-opacity="1"><g transform="translate(56.822609, 24.609023)"><g><path d="M 3.65625 -2.183594 C 3.886719 -2.183594 4.09375 -2.277344 4.300781 -2.460938 C 4.484375 -2.621094 4.644531 -2.78125 4.804688 -2.964844 C 5.035156 -3.265625 5.265625 -3.609375 5.519531 -3.957031 L 6.484375 -5.472656 C 6.601562 -5.632812 6.691406 -5.816406 6.808594 -6 C 6.898438 -6.1875 6.992188 -6.371094 7.105469 -6.554688 C 7.175781 -6.667969 7.199219 -6.785156 7.222656 -6.851562 C 7.222656 -6.851562 7.222656 -6.875 7.222656 -6.945312 C 7.199219 -7.058594 7.105469 -7.105469 6.945312 -7.105469 C 6.875 -7.105469 6.828125 -7.082031 6.808594 -7.035156 C 6.714844 -6.945312 6.644531 -6.828125 6.601562 -6.714844 C 6.117188 -5.796875 4.875 -3.839844 4.140625 -3.105469 C 4.070312 -3.035156 4 -2.988281 3.933594 -2.945312 C 3.863281 -2.875 3.792969 -2.828125 3.703125 -2.78125 C 3.679688 -2.78125 3.679688 -2.78125 3.679688 -2.78125 C 3.679688 -2.757812 3.679688 -2.757812 3.65625 -2.757812 C 3.585938 -2.757812 3.542969 -2.804688 3.496094 -2.875 C 3.425781 -3.128906 3.496094 -3.378906 3.519531 -3.632812 C 3.679688 -4.390625 3.816406 -5.105469 4.09375 -5.816406 C 4.277344 -6.253906 4.460938 -6.691406 4.621094 -7.128906 C 4.738281 -7.289062 5.105469 -8.324219 5.105469 -8.441406 C 5.128906 -8.554688 5.082031 -8.625 4.988281 -8.667969 C 4.921875 -8.738281 4.851562 -8.761719 4.761719 -8.761719 C 4.644531 -8.761719 4.554688 -8.714844 4.484375 -8.601562 C 4.390625 -8.441406 4.300781 -8.324219 4.207031 -8.210938 L 3.519531 -7.222656 C 3.449219 -7.152344 3.402344 -7.105469 3.355469 -7.082031 C 3.355469 -7.082031 3.335938 -7.082031 3.265625 -7.082031 L 3.152344 -7.335938 C 2.875 -7.773438 2.484375 -7.980469 2 -7.980469 C 1.703125 -7.980469 1.402344 -7.886719 1.125 -7.679688 C 0.941406 -7.519531 0.78125 -7.359375 0.621094 -7.105469 C 0.527344 -6.945312 0.4375 -6.808594 0.34375 -6.667969 C 0.253906 -6.507812 0.160156 -6.347656 0.0703125 -6.1875 C -0.207031 -5.65625 -0.34375 -5.082031 -0.34375 -4.460938 C -0.277344 -3.910156 0.136719 -3.609375 0.667969 -3.542969 L 0.804688 -3.542969 C 0.964844 -3.542969 1.105469 -3.585938 1.195312 -3.65625 C 1.632812 -4.023438 1.976562 -4.371094 2.34375 -4.804688 C 2.414062 -4.875 2.460938 -4.921875 2.53125 -4.988281 L 2.574219 -4.988281 C 2.621094 -4.945312 2.644531 -4.921875 2.644531 -4.921875 C 2.644531 -4.898438 2.644531 -4.851562 2.644531 -4.828125 C 2.621094 -4.78125 2.621094 -4.738281 2.621094 -4.714844 C 2.597656 -4.53125 2.550781 -4.347656 2.53125 -4.164062 C 2.484375 -3.976562 2.460938 -3.792969 2.4375 -3.585938 C 2.4375 -2.875 2.851562 -2.183594 3.65625 -2.183594 Z M 0.804688 -4.324219 C 0.734375 -4.347656 0.710938 -4.4375 0.710938 -4.554688 C 0.828125 -5.382812 1.679688 -7.542969 2.414062 -7.542969 C 2.507812 -7.542969 2.574219 -7.496094 2.621094 -7.40625 C 2.691406 -7.3125 2.714844 -7.242188 2.738281 -7.199219 C 2.757812 -7.035156 2.851562 -6.921875 3.035156 -6.851562 C 3.105469 -6.828125 3.128906 -6.761719 3.105469 -6.667969 C 3.105469 -6.667969 3.082031 -6.644531 3.058594 -6.621094 C 2.53125 -5.910156 2.023438 -5.289062 1.378906 -4.667969 C 1.3125 -4.597656 1.242188 -4.554688 1.171875 -4.507812 C 1.105469 -4.460938 1.011719 -4.414062 0.941406 -4.347656 C 0.917969 -4.324219 0.875 -4.324219 0.804688 -4.324219 Z M 0.804688 -4.324219 "/></g></g></g><g fill="#14df98" fill-opacity="1"><g transform="translate(62.892081, 24.609023)"><g><path d="M 0.804688 0.09375 C 1.632812 0.09375 2.367188 -0.917969 2.507812 -1.726562 C 2.667969 -2.4375 2.714844 -3.105469 2.460938 -3.816406 C 2.390625 -4.046875 2.460938 -4.230469 2.621094 -4.390625 C 2.667969 -4.414062 2.714844 -4.460938 2.738281 -4.507812 C 3.082031 -4.851562 3.449219 -5.195312 3.792969 -5.542969 C 4.140625 -5.863281 4.484375 -6.207031 4.828125 -6.554688 C 4.875 -6.621094 4.945312 -6.691406 5.035156 -6.785156 C 5.105469 -6.898438 5.105469 -6.96875 4.988281 -7.015625 C 4.921875 -7.058594 4.851562 -7.082031 4.761719 -7.082031 C 4.691406 -7.082031 4.621094 -7.058594 4.554688 -6.992188 L 2.621094 -5.082031 C 2.53125 -4.988281 2.414062 -4.898438 2.300781 -4.804688 C 2.277344 -4.78125 2.230469 -4.761719 2.207031 -4.761719 C 2 -4.761719 1.449219 -6.644531 1.425781 -6.691406 C 1.355469 -6.945312 1.332031 -7.222656 1.355469 -7.519531 C 1.332031 -7.820312 1.355469 -8.09375 1.472656 -8.347656 C 1.585938 -8.691406 1.746094 -8.96875 2.09375 -9.128906 C 2.117188 -9.152344 2.136719 -9.152344 2.160156 -9.152344 C 2.230469 -9.152344 2.300781 -9.128906 2.324219 -9.058594 C 2.4375 -8.832031 2.460938 -8.625 2.414062 -8.441406 C 2.34375 -8.003906 2.300781 -7.613281 2.183594 -7.222656 C 2.160156 -7.152344 2.136719 -7.058594 2.136719 -6.992188 C 2.117188 -6.898438 2.117188 -6.808594 2.09375 -6.738281 C 2.070312 -6.621094 2.117188 -6.53125 2.253906 -6.507812 C 2.277344 -6.507812 2.300781 -6.507812 2.324219 -6.507812 C 2.34375 -6.484375 2.34375 -6.484375 2.367188 -6.484375 C 2.484375 -6.484375 2.574219 -6.554688 2.621094 -6.667969 L 2.691406 -6.808594 C 2.945312 -7.40625 3.082031 -8.027344 3.082031 -8.644531 C 3.035156 -9.039062 2.851562 -9.289062 2.550781 -9.40625 C 2.4375 -9.472656 2.300781 -9.519531 2.183594 -9.542969 C 2.070312 -9.589844 1.953125 -9.613281 1.816406 -9.613281 C 1.609375 -9.613281 1.378906 -9.519531 1.171875 -9.359375 C 0.804688 -9.058594 0.597656 -8.667969 0.527344 -8.210938 C 0.4375 -7.613281 0.460938 -7.035156 0.621094 -6.484375 C 0.804688 -5.816406 1.058594 -5.152344 1.3125 -4.507812 C 1.519531 -3.910156 1.5625 -4.09375 1.148438 -3.609375 C 0.667969 -3.035156 0.277344 -2.4375 -0.0703125 -1.816406 C -0.09375 -1.726562 -0.136719 -1.632812 -0.183594 -1.539062 C -0.230469 -1.449219 -0.277344 -1.355469 -0.300781 -1.265625 C -0.460938 -0.710938 -0.160156 -0.183594 0.390625 0.0234375 C 0.527344 0.0703125 0.667969 0.09375 0.804688 0.09375 Z M 0.691406 -0.367188 C 0.621094 -0.367188 0.550781 -0.390625 0.507812 -0.460938 C 0.367188 -0.621094 0.320312 -0.828125 0.34375 -1.082031 C 0.34375 -1.5625 1.105469 -2.667969 1.425781 -3.035156 C 1.449219 -3.105469 1.496094 -3.105469 1.5625 -3.082031 C 1.585938 -3.058594 1.609375 -3.011719 1.609375 -2.988281 C 1.632812 -2.921875 1.65625 -2.828125 1.65625 -2.738281 C 1.65625 -2.644531 1.65625 -2.53125 1.632812 -2.414062 C 1.632812 -2.117188 1.585938 -1.816406 1.496094 -1.496094 C 1.425781 -1.195312 1.011719 -0.367188 0.691406 -0.367188 Z M 0.691406 -0.367188 "/></g></g></g><g fill="#14df98" fill-opacity="1"><g transform="translate(66.823442, 24.609023)"><g><path d="M 2 -2.277344 C 2.484375 -2.277344 2.804688 -2.300781 3.082031 -2.738281 C 3.152344 -2.804688 3.171875 -2.851562 3.195312 -2.921875 C 3.472656 -3.449219 3.585938 -4.046875 3.5625 -4.691406 C 3.519531 -5.21875 3.355469 -5.679688 3.082031 -6.117188 C 2.964844 -6.277344 2.875 -6.414062 2.78125 -6.578125 C 2.738281 -6.667969 2.757812 -6.738281 2.851562 -6.785156 C 3.152344 -6.808594 3.449219 -6.828125 3.839844 -6.828125 C 4.09375 -6.828125 4.371094 -6.828125 4.691406 -6.828125 C 4.988281 -6.808594 5.359375 -6.808594 5.773438 -6.808594 C 5.886719 -6.828125 5.910156 -6.898438 5.839844 -7.015625 C 5.773438 -7.105469 5.632812 -7.175781 5.472656 -7.222656 C 5.011719 -7.242188 4.507812 -7.265625 4.046875 -7.265625 C 3.5625 -7.265625 3.128906 -7.242188 2.757812 -7.222656 C 2.367188 -7.175781 2.160156 -7.105469 2.136719 -7.035156 C 2.023438 -7.015625 1.976562 -6.875 2.046875 -6.785156 C 2.160156 -6.578125 2.300781 -6.371094 2.414062 -6.1875 C 2.898438 -5.425781 2.964844 -4.644531 2.714844 -3.792969 C 2.691406 -3.679688 2.644531 -3.585938 2.597656 -3.496094 C 2.53125 -3.402344 2.484375 -3.3125 2.4375 -3.21875 C 2.324219 -3.035156 2.207031 -2.898438 2.070312 -2.828125 C 2 -2.78125 1.953125 -2.757812 1.886719 -2.757812 C 1.816406 -2.757812 1.746094 -2.78125 1.679688 -2.851562 C 1.539062 -2.964844 1.425781 -3.105469 1.3125 -3.3125 C 1.105469 -3.679688 1.035156 -4.09375 1.058594 -4.554688 C 1.125 -6 1.5625 -7.449219 2.667969 -8.441406 C 2.738281 -8.507812 2.714844 -8.601562 2.644531 -8.625 C 2.644531 -8.644531 2.621094 -8.644531 2.597656 -8.644531 C 2.484375 -8.691406 2.367188 -8.714844 2.230469 -8.714844 C 2.023438 -8.714844 1.839844 -8.644531 1.679688 -8.507812 C 0.667969 -7.726562 0.09375 -5.980469 0.0234375 -4.714844 L 0.0234375 -4.484375 C 0.0234375 -4.460938 0.0234375 -4.414062 0.046875 -4.390625 C 0.046875 -4.347656 0.046875 -4.300781 0.046875 -4.277344 C 0.160156 -3.335938 0.667969 -2.714844 1.519531 -2.390625 C 1.585938 -2.367188 1.679688 -2.34375 1.769531 -2.324219 C 1.839844 -2.300781 1.933594 -2.300781 2 -2.277344 Z M 2 -2.277344 "/></g></g></g><g fill="#14df98" fill-opacity="1"><g transform="translate(71.536473, 24.609023)"><g/></g></g><g fill="#14df98" fill-opacity="1"><g transform="translate(77.513981, 24.609023)"><g><path d="M 2.136719 0.550781 C 2.78125 0.550781 3.21875 0.460938 3.769531 0.113281 C 4.164062 -0.136719 4.507812 -0.484375 4.851562 -0.875 C 5.632812 -1.726562 7.335938 -4.554688 7.863281 -5.566406 C 7.933594 -5.726562 8.027344 -5.910156 8.09375 -6.09375 C 8.164062 -6.253906 8.253906 -6.4375 8.324219 -6.601562 C 8.347656 -6.644531 8.347656 -6.691406 8.371094 -6.738281 C 8.394531 -6.761719 8.394531 -6.808594 8.417969 -6.851562 C 8.417969 -6.898438 8.417969 -6.921875 8.394531 -6.945312 C 8.371094 -7.035156 8.253906 -7.082031 8.164062 -7.082031 C 8.003906 -7.082031 7.933594 -6.921875 7.863281 -6.808594 C 7.796875 -6.644531 7.726562 -6.507812 7.679688 -6.371094 C 7.613281 -6.207031 7.542969 -6.070312 7.472656 -5.933594 C 7.335938 -5.519531 6.460938 -4.117188 5.910156 -3.289062 C 5.335938 -2.414062 4.414062 -1.058594 4.046875 -0.734375 C 3.609375 -0.34375 3.058594 0.136719 2.4375 0.207031 C 2.070312 0.207031 1.769531 0.207031 1.519531 -0.136719 C 1.402344 -0.253906 1.3125 -0.367188 1.242188 -0.527344 C 1.148438 -0.734375 1.082031 -0.941406 1.011719 -1.148438 C 0.757812 -1.976562 0.644531 -2.898438 0.710938 -3.933594 C 0.734375 -4.046875 0.757812 -4.230469 0.757812 -4.460938 C 0.941406 -7.425781 2.09375 -11.980469 4.851562 -13.359375 C 5.152344 -13.5 5.472656 -13.566406 5.816406 -13.566406 C 5.863281 -13.566406 5.910156 -13.566406 5.980469 -13.566406 C 6.023438 -13.542969 6.070312 -13.542969 6.117188 -13.542969 C 6.324219 -13.523438 6.507812 -13.40625 6.621094 -13.199219 C 6.785156 -12.902344 6.851562 -12.578125 6.828125 -12.257812 C 6.667969 -10.96875 6.046875 -10.027344 5.058594 -9.265625 C 4.988281 -9.246094 4.945312 -9.199219 4.921875 -9.175781 C 4.667969 -9.058594 4.484375 -8.96875 4.230469 -8.96875 C 4.164062 -8.96875 4.09375 -8.96875 4.046875 -8.992188 L 3.933594 -8.992188 C 3.886719 -8.945312 3.863281 -8.921875 3.863281 -8.921875 C 3.863281 -8.898438 3.886719 -8.851562 3.910156 -8.832031 C 4.140625 -8.714844 4.371094 -8.667969 4.621094 -8.667969 C 6.070312 -8.667969 7.199219 -10.53125 7.472656 -11.867188 C 7.632812 -12.578125 7.3125 -13.40625 6.507812 -13.773438 C 6.4375 -13.796875 6.371094 -13.84375 6.300781 -13.867188 C 6.230469 -13.890625 6.164062 -13.914062 6.09375 -13.933594 C 5.796875 -14.003906 5.519531 -14.050781 5.265625 -14.050781 C 4.140625 -14.050781 3.195312 -13.453125 2.460938 -12.53125 C 2.070312 -12.074219 1.746094 -11.566406 1.449219 -10.992188 C 0.875 -9.84375 0.4375 -8.578125 0.160156 -7.449219 C 0.0234375 -6.875 -0.0703125 -6.371094 -0.136719 -5.933594 C -0.183594 -5.65625 -0.207031 -5.382812 -0.230469 -5.105469 C -0.253906 -4.828125 -0.277344 -4.554688 -0.300781 -4.277344 C -0.367188 -3.816406 -0.367188 -3.355469 -0.34375 -2.921875 C -0.277344 -2.207031 -0.183594 -1.519531 0.0703125 -0.851562 C 0.507812 0.136719 0.941406 0.550781 2.136719 0.550781 Z M 2.136719 0.550781 "/></g></g></g><g fill="#14df98" fill-opacity="1"><g transform="translate(84.77895, 24.609023)"><g><path d="M 0.757812 -1.863281 C 1.332031 -1.863281 1.746094 -2.277344 2.09375 -2.667969 C 2.460938 -3.128906 2.804688 -3.609375 3.152344 -4.09375 C 3.402344 -4.484375 3.679688 -4.898438 3.933594 -5.289062 C 4.183594 -5.679688 4.4375 -6.070312 4.691406 -6.460938 C 4.714844 -6.53125 4.78125 -6.621094 4.851562 -6.738281 C 4.921875 -6.851562 4.96875 -6.96875 4.96875 -7.035156 C 4.96875 -7.058594 4.945312 -7.105469 4.921875 -7.128906 C 4.875 -7.199219 4.804688 -7.222656 4.714844 -7.222656 C 4.644531 -7.222656 4.578125 -7.199219 4.53125 -7.152344 C 4.507812 -7.128906 4.484375 -7.082031 4.484375 -7.058594 C 4.460938 -7.035156 4.4375 -6.992188 4.414062 -6.96875 L 3.035156 -4.898438 C 2.757812 -4.4375 1.355469 -2.460938 0.851562 -2.460938 C 0.757812 -2.460938 0.691406 -2.550781 0.667969 -2.714844 L 0.667969 -2.875 C 0.644531 -3.425781 0.691406 -4 0.78125 -4.554688 L 0.917969 -5.128906 C 0.964844 -5.289062 1.058594 -5.382812 1.195312 -5.402344 C 1.3125 -5.425781 1.402344 -5.472656 1.496094 -5.496094 C 1.585938 -5.519531 1.679688 -5.542969 1.769531 -5.589844 C 2.390625 -5.957031 3.035156 -6.507812 3.242188 -7.242188 C 3.402344 -7.726562 3.265625 -8.046875 2.804688 -8.253906 C 2.597656 -8.371094 2.4375 -8.371094 2.183594 -8.371094 C 2 -8.371094 1.816406 -8.300781 1.609375 -8.1875 C 1.425781 -8.046875 1.289062 -7.910156 1.171875 -7.796875 C 0.898438 -7.519531 0.667969 -7.175781 0.484375 -6.828125 C -0.136719 -5.566406 -0.414062 -4.253906 -0.320312 -2.898438 L -0.253906 -2.53125 C -0.136719 -2.070312 0.320312 -1.863281 0.757812 -1.863281 Z M 1.265625 -5.886719 C 1.195312 -5.910156 1.195312 -5.957031 1.21875 -6.023438 C 1.355469 -6.484375 2.046875 -7.886719 2.550781 -7.886719 C 2.644531 -7.886719 2.714844 -7.839844 2.738281 -7.726562 L 2.738281 -7.679688 C 2.738281 -7.035156 1.953125 -6.117188 1.355469 -5.886719 C 1.332031 -5.863281 1.289062 -5.863281 1.265625 -5.886719 Z M 1.265625 -5.886719 "/></g></g></g><g fill="#14df98" fill-opacity="1"><g transform="translate(88.595355, 24.609023)"><g><path d="M 3.21875 -1.242188 C 3.378906 -1.242188 3.542969 -1.289062 3.679688 -1.355469 C 3.839844 -1.472656 4 -1.609375 4.117188 -1.769531 L 4.53125 -2.390625 C 4.828125 -2.921875 5.152344 -3.449219 5.449219 -3.976562 C 5.75 -4.484375 6.046875 -5.011719 6.347656 -5.542969 C 6.460938 -5.75 6.578125 -5.957031 6.667969 -6.164062 C 6.761719 -6.371094 6.851562 -6.601562 6.96875 -6.808594 C 7.035156 -6.921875 6.96875 -7.015625 6.808594 -7.035156 C 6.785156 -7.058594 6.738281 -7.058594 6.691406 -7.058594 C 6.601562 -7.058594 6.53125 -7.015625 6.484375 -6.945312 L 6.253906 -6.507812 C 5.542969 -5.128906 4.761719 -3.816406 3.863281 -2.53125 C 3.769531 -2.414062 3.679688 -2.300781 3.5625 -2.207031 C 3.5625 -2.183594 3.542969 -2.183594 3.472656 -2.183594 C 3.472656 -2.207031 3.472656 -2.207031 3.449219 -2.230469 C 3.378906 -2.414062 3.449219 -2.597656 3.472656 -2.78125 C 3.65625 -3.703125 3.863281 -4.597656 4.117188 -5.519531 L 4.667969 -7.65625 C 4.714844 -7.886719 4.738281 -8.117188 4.738281 -8.347656 C 4.714844 -8.554688 4.621094 -8.691406 4.484375 -8.761719 L 4.347656 -8.832031 C 4.300781 -8.851562 4.230469 -8.875 4.140625 -8.875 C 3.839844 -8.875 3.378906 -8.1875 3.242188 -7.910156 L 2.136719 -5.863281 C 1.839844 -5.335938 1.496094 -4.828125 1.148438 -4.300781 C 1.125 -4.277344 1.105469 -4.253906 1.035156 -4.230469 C 0.964844 -4.207031 0.941406 -4.253906 0.941406 -4.390625 C 0.941406 -4.507812 0.941406 -4.597656 0.964844 -4.667969 C 1.035156 -4.96875 1.082031 -5.289062 1.148438 -5.609375 C 1.195312 -5.933594 1.265625 -6.253906 1.332031 -6.578125 C 1.355469 -6.738281 1.402344 -6.898438 1.449219 -7.058594 C 1.472656 -7.199219 1.519531 -7.359375 1.539062 -7.519531 C 1.5625 -7.65625 1.496094 -7.75 1.378906 -7.820312 L 1.242188 -7.886719 L 1.195312 -7.886719 C 1.035156 -7.886719 0.941406 -7.773438 0.875 -7.613281 L 0.667969 -7.058594 C 0.320312 -6.023438 0.136719 -4.96875 0.046875 -3.886719 C 0 -3.542969 0.136719 -3.3125 0.4375 -3.171875 L 0.527344 -3.152344 C 0.644531 -3.105469 0.757812 -3.082031 0.828125 -3.082031 C 1.011719 -3.082031 1.148438 -3.152344 1.265625 -3.3125 C 1.378906 -3.425781 1.472656 -3.542969 1.539062 -3.703125 C 1.910156 -4.324219 2.277344 -4.96875 2.621094 -5.589844 L 3.5625 -7.289062 C 3.585938 -7.359375 3.632812 -7.40625 3.65625 -7.425781 L 3.75 -7.425781 C 3.75 -7.425781 3.75 -7.40625 3.769531 -7.382812 L 3.632812 -6.875 C 3.335938 -5.933594 3.035156 -5.011719 2.78125 -4.023438 C 2.574219 -3.21875 2.484375 -2.597656 2.484375 -1.792969 C 2.507812 -1.632812 2.574219 -1.539062 2.691406 -1.472656 C 2.851562 -1.332031 3.011719 -1.265625 3.21875 -1.242188 Z M 3.21875 -1.242188 "/></g></g></g><g fill="#14df98" fill-opacity="1"><g transform="translate(94.434925, 24.609023)"><g><path d="M 0.757812 -1.863281 C 1.332031 -1.863281 1.746094 -2.277344 2.09375 -2.667969 C 2.460938 -3.128906 2.804688 -3.609375 3.152344 -4.09375 C 3.402344 -4.484375 3.679688 -4.898438 3.933594 -5.289062 C 4.183594 -5.679688 4.4375 -6.070312 4.691406 -6.460938 C 4.714844 -6.53125 4.78125 -6.621094 4.851562 -6.738281 C 4.921875 -6.851562 4.96875 -6.96875 4.96875 -7.035156 C 4.96875 -7.058594 4.945312 -7.105469 4.921875 -7.128906 C 4.875 -7.199219 4.804688 -7.222656 4.714844 -7.222656 C 4.644531 -7.222656 4.578125 -7.199219 4.53125 -7.152344 C 4.507812 -7.128906 4.484375 -7.082031 4.484375 -7.058594 C 4.460938 -7.035156 4.4375 -6.992188 4.414062 -6.96875 L 3.035156 -4.898438 C 2.757812 -4.4375 1.355469 -2.460938 0.851562 -2.460938 C 0.757812 -2.460938 0.691406 -2.550781 0.667969 -2.714844 L 0.667969 -2.875 C 0.644531 -3.425781 0.691406 -4 0.78125 -4.554688 L 0.917969 -5.128906 C 0.964844 -5.289062 1.058594 -5.382812 1.195312 -5.402344 C 1.3125 -5.425781 1.402344 -5.472656 1.496094 -5.496094 C 1.585938 -5.519531 1.679688 -5.542969 1.769531 -5.589844 C 2.390625 -5.957031 3.035156 -6.507812 3.242188 -7.242188 C 3.402344 -7.726562 3.265625 -8.046875 2.804688 -8.253906 C 2.597656 -8.371094 2.4375 -8.371094 2.183594 -8.371094 C 2 -8.371094 1.816406 -8.300781 1.609375 -8.1875 C 1.425781 -8.046875 1.289062 -7.910156 1.171875 -7.796875 C 0.898438 -7.519531 0.667969 -7.175781 0.484375 -6.828125 C -0.136719 -5.566406 -0.414062 -4.253906 -0.320312 -2.898438 L -0.253906 -2.53125 C -0.136719 -2.070312 0.320312 -1.863281 0.757812 -1.863281 Z M 1.265625 -5.886719 C 1.195312 -5.910156 1.195312 -5.957031 1.21875 -6.023438 C 1.355469 -6.484375 2.046875 -7.886719 2.550781 -7.886719 C 2.644531 -7.886719 2.714844 -7.839844 2.738281 -7.726562 L 2.738281 -7.679688 C 2.738281 -7.035156 1.953125 -6.117188 1.355469 -5.886719 C 1.332031 -5.863281 1.289062 -5.863281 1.265625 -5.886719 Z M 1.265625 -5.886719 "/></g></g></g><g fill="#14df98" fill-opacity="1"><g transform="translate(98.25133, 24.609023)"><g><path d="M 3.335938 -1.171875 C 3.632812 -1.171875 3.863281 -1.195312 4.117188 -1.449219 C 4.183594 -1.519531 4.277344 -1.609375 4.347656 -1.679688 C 4.414062 -1.746094 4.484375 -1.839844 4.554688 -1.933594 C 4.851562 -2.34375 5.105469 -2.78125 5.3125 -3.242188 C 5.566406 -3.792969 5.796875 -4.347656 6.023438 -4.898438 C 6.253906 -5.449219 6.484375 -6 6.738281 -6.554688 C 6.808594 -6.667969 6.828125 -6.761719 6.851562 -6.875 C 6.851562 -6.898438 6.851562 -6.945312 6.875 -6.96875 C 6.875 -6.992188 6.875 -7.015625 6.851562 -7.035156 C 6.851562 -7.058594 6.828125 -7.105469 6.785156 -7.152344 C 6.714844 -7.175781 6.667969 -7.199219 6.644531 -7.199219 C 6.53125 -7.199219 6.460938 -7.152344 6.394531 -7.058594 L 6.253906 -6.761719 C 5.726562 -5.496094 5.21875 -4.300781 4.644531 -3.105469 C 4.484375 -2.757812 4.300781 -2.484375 4.046875 -2.136719 C 4.023438 -2.070312 3.976562 -2.023438 3.933594 -1.976562 C 3.863281 -1.933594 3.816406 -1.886719 3.769531 -1.816406 C 3.726562 -1.769531 3.679688 -1.746094 3.632812 -1.746094 C 3.449219 -1.746094 3.402344 -2.183594 3.402344 -2.34375 C 3.378906 -2.738281 3.355469 -3.152344 3.355469 -3.542969 C 3.355469 -3.933594 3.378906 -4.324219 3.425781 -4.714844 C 3.5625 -5.703125 3.839844 -7.773438 4.390625 -8.324219 C 5.589844 -9.589844 7.265625 -11.613281 7.703125 -13.335938 C 7.820312 -13.914062 7.726562 -14.257812 6.992188 -14.511719 C 6.898438 -14.535156 6.828125 -14.554688 6.761719 -14.554688 C 5.980469 -14.554688 5.152344 -13.085938 4.597656 -11.84375 C 4.070312 -10.691406 3.355469 -8.667969 3.152344 -7.933594 C 3.128906 -7.863281 3.105469 -7.820312 3.105469 -7.773438 C 3.082031 -7.726562 3.058594 -7.679688 3.035156 -7.632812 C 3.011719 -7.566406 2.964844 -7.542969 2.921875 -7.542969 C 2.898438 -7.542969 2.875 -7.542969 2.851562 -7.566406 C 2.78125 -7.589844 2.738281 -7.632812 2.667969 -7.679688 C 2.597656 -7.703125 2.550781 -7.75 2.484375 -7.773438 C 2.253906 -7.839844 2.046875 -7.886719 1.863281 -7.886719 C 0.550781 -7.886719 -0.207031 -6.1875 -0.34375 -4.96875 C -0.367188 -4.738281 -0.34375 -4.507812 -0.277344 -4.277344 C -0.183594 -3.910156 0.046875 -3.679688 0.414062 -3.585938 C 0.550781 -3.542969 0.691406 -3.519531 0.828125 -3.519531 C 1.21875 -3.519531 1.539062 -3.769531 1.792969 -4.070312 C 1.863281 -4.140625 1.933594 -4.230469 2 -4.300781 C 2.046875 -4.371094 2.117188 -4.460938 2.183594 -4.53125 C 2.207031 -4.554688 2.253906 -4.597656 2.277344 -4.667969 C 2.300781 -4.738281 2.34375 -4.738281 2.390625 -4.714844 C 2.460938 -4.691406 2.507812 -4.644531 2.484375 -4.578125 C 2.460938 -4.507812 2.460938 -4.460938 2.460938 -4.390625 C 2.460938 -4.277344 2.460938 -4.164062 2.460938 -4.046875 C 2.460938 -3.933594 2.460938 -3.816406 2.4375 -3.703125 C 2.4375 -2.988281 2.460938 -2.53125 2.550781 -2.070312 L 2.691406 -1.609375 C 2.828125 -1.332031 3.035156 -1.195312 3.335938 -1.171875 Z M 0.898438 -4.183594 C 0.851562 -4.183594 0.828125 -4.183594 0.804688 -4.207031 C 0.734375 -4.253906 0.710938 -4.347656 0.710938 -4.507812 C 0.78125 -5.3125 1.332031 -7.496094 2.230469 -7.496094 C 2.300781 -7.472656 2.34375 -7.425781 2.367188 -7.40625 C 2.414062 -7.382812 2.4375 -7.359375 2.4375 -7.335938 C 2.484375 -7.152344 2.597656 -7.035156 2.757812 -6.992188 C 2.851562 -6.96875 2.875 -6.898438 2.851562 -6.828125 C 2.828125 -6.808594 2.828125 -6.785156 2.828125 -6.761719 C 2.390625 -5.863281 1.910156 -5.058594 1.171875 -4.390625 C 1.125 -4.347656 1.105469 -4.324219 1.105469 -4.324219 C 1.035156 -4.253906 0.964844 -4.183594 0.898438 -4.183594 Z M 4.578125 -9.289062 C 4.554688 -9.3125 4.53125 -9.335938 4.53125 -9.359375 C 4.714844 -10.394531 5.796875 -12.832031 6.53125 -13.707031 C 6.644531 -13.867188 6.785156 -14.003906 6.945312 -14.121094 C 6.96875 -14.140625 7.015625 -14.140625 7.058594 -14.140625 C 7.152344 -14.140625 7.222656 -14.097656 7.242188 -13.980469 C 7.242188 -13.933594 7.242188 -13.890625 7.265625 -13.820312 C 7.199219 -13.359375 7.082031 -12.921875 6.828125 -12.488281 C 6.300781 -11.382812 5.589844 -10.371094 4.78125 -9.453125 C 4.738281 -9.382812 4.691406 -9.335938 4.621094 -9.289062 Z M 4.578125 -9.289062 "/></g></g></g><g fill="#14df98" fill-opacity="1"><g transform="translate(103.929967, 24.609023)"><g><path d="M 0.757812 -1.863281 C 1.332031 -1.863281 1.746094 -2.277344 2.09375 -2.667969 C 2.460938 -3.128906 2.804688 -3.609375 3.152344 -4.09375 C 3.402344 -4.484375 3.679688 -4.898438 3.933594 -5.289062 C 4.183594 -5.679688 4.4375 -6.070312 4.691406 -6.460938 C 4.714844 -6.53125 4.78125 -6.621094 4.851562 -6.738281 C 4.921875 -6.851562 4.96875 -6.96875 4.96875 -7.035156 C 4.96875 -7.058594 4.945312 -7.105469 4.921875 -7.128906 C 4.875 -7.199219 4.804688 -7.222656 4.714844 -7.222656 C 4.644531 -7.222656 4.578125 -7.199219 4.53125 -7.152344 C 4.507812 -7.128906 4.484375 -7.082031 4.484375 -7.058594 C 4.460938 -7.035156 4.4375 -6.992188 4.414062 -6.96875 L 3.035156 -4.898438 C 2.757812 -4.4375 1.355469 -2.460938 0.851562 -2.460938 C 0.757812 -2.460938 0.691406 -2.550781 0.667969 -2.714844 L 0.667969 -2.875 C 0.644531 -3.425781 0.691406 -4 0.78125 -4.554688 L 0.917969 -5.128906 C 0.964844 -5.289062 1.058594 -5.382812 1.195312 -5.402344 C 1.3125 -5.425781 1.402344 -5.472656 1.496094 -5.496094 C 1.585938 -5.519531 1.679688 -5.542969 1.769531 -5.589844 C 2.390625 -5.957031 3.035156 -6.507812 3.242188 -7.242188 C 3.402344 -7.726562 3.265625 -8.046875 2.804688 -8.253906 C 2.597656 -8.371094 2.4375 -8.371094 2.183594 -8.371094 C 2 -8.371094 1.816406 -8.300781 1.609375 -8.1875 C 1.425781 -8.046875 1.289062 -7.910156 1.171875 -7.796875 C 0.898438 -7.519531 0.667969 -7.175781 0.484375 -6.828125 C -0.136719 -5.566406 -0.414062 -4.253906 -0.320312 -2.898438 L -0.253906 -2.53125 C -0.136719 -2.070312 0.320312 -1.863281 0.757812 -1.863281 Z M 1.265625 -5.886719 C 1.195312 -5.910156 1.195312 -5.957031 1.21875 -6.023438 C 1.355469 -6.484375 2.046875 -7.886719 2.550781 -7.886719 C 2.644531 -7.886719 2.714844 -7.839844 2.738281 -7.726562 L 2.738281 -7.679688 C 2.738281 -7.035156 1.953125 -6.117188 1.355469 -5.886719 C 1.332031 -5.863281 1.289062 -5.863281 1.265625 -5.886719 Z M 1.265625 -5.886719 "/></g></g></g><g fill="#14df98" fill-opacity="1"><g transform="translate(107.746372, 24.609023)"><g><path d="M 0.804688 0.09375 C 1.632812 0.09375 2.367188 -0.917969 2.507812 -1.726562 C 2.667969 -2.4375 2.714844 -3.105469 2.460938 -3.816406 C 2.390625 -4.046875 2.460938 -4.230469 2.621094 -4.390625 C 2.667969 -4.414062 2.714844 -4.460938 2.738281 -4.507812 C 3.082031 -4.851562 3.449219 -5.195312 3.792969 -5.542969 C 4.140625 -5.863281 4.484375 -6.207031 4.828125 -6.554688 C 4.875 -6.621094 4.945312 -6.691406 5.035156 -6.785156 C 5.105469 -6.898438 5.105469 -6.96875 4.988281 -7.015625 C 4.921875 -7.058594 4.851562 -7.082031 4.761719 -7.082031 C 4.691406 -7.082031 4.621094 -7.058594 4.554688 -6.992188 L 2.621094 -5.082031 C 2.53125 -4.988281 2.414062 -4.898438 2.300781 -4.804688 C 2.277344 -4.78125 2.230469 -4.761719 2.207031 -4.761719 C 2 -4.761719 1.449219 -6.644531 1.425781 -6.691406 C 1.355469 -6.945312 1.332031 -7.222656 1.355469 -7.519531 C 1.332031 -7.820312 1.355469 -8.09375 1.472656 -8.347656 C 1.585938 -8.691406 1.746094 -8.96875 2.09375 -9.128906 C 2.117188 -9.152344 2.136719 -9.152344 2.160156 -9.152344 C 2.230469 -9.152344 2.300781 -9.128906 2.324219 -9.058594 C 2.4375 -8.832031 2.460938 -8.625 2.414062 -8.441406 C 2.34375 -8.003906 2.300781 -7.613281 2.183594 -7.222656 C 2.160156 -7.152344 2.136719 -7.058594 2.136719 -6.992188 C 2.117188 -6.898438 2.117188 -6.808594 2.09375 -6.738281 C 2.070312 -6.621094 2.117188 -6.53125 2.253906 -6.507812 C 2.277344 -6.507812 2.300781 -6.507812 2.324219 -6.507812 C 2.34375 -6.484375 2.34375 -6.484375 2.367188 -6.484375 C 2.484375 -6.484375 2.574219 -6.554688 2.621094 -6.667969 L 2.691406 -6.808594 C 2.945312 -7.40625 3.082031 -8.027344 3.082031 -8.644531 C 3.035156 -9.039062 2.851562 -9.289062 2.550781 -9.40625 C 2.4375 -9.472656 2.300781 -9.519531 2.183594 -9.542969 C 2.070312 -9.589844 1.953125 -9.613281 1.816406 -9.613281 C 1.609375 -9.613281 1.378906 -9.519531 1.171875 -9.359375 C 0.804688 -9.058594 0.597656 -8.667969 0.527344 -8.210938 C 0.4375 -7.613281 0.460938 -7.035156 0.621094 -6.484375 C 0.804688 -5.816406 1.058594 -5.152344 1.3125 -4.507812 C 1.519531 -3.910156 1.5625 -4.09375 1.148438 -3.609375 C 0.667969 -3.035156 0.277344 -2.4375 -0.0703125 -1.816406 C -0.09375 -1.726562 -0.136719 -1.632812 -0.183594 -1.539062 C -0.230469 -1.449219 -0.277344 -1.355469 -0.300781 -1.265625 C -0.460938 -0.710938 -0.160156 -0.183594 0.390625 0.0234375 C 0.527344 0.0703125 0.667969 0.09375 0.804688 0.09375 Z M 0.691406 -0.367188 C 0.621094 -0.367188 0.550781 -0.390625 0.507812 -0.460938 C 0.367188 -0.621094 0.320312 -0.828125 0.34375 -1.082031 C 0.34375 -1.5625 1.105469 -2.667969 1.425781 -3.035156 C 1.449219 -3.105469 1.496094 -3.105469 1.5625 -3.082031 C 1.585938 -3.058594 1.609375 -3.011719 1.609375 -2.988281 C 1.632812 -2.921875 1.65625 -2.828125 1.65625 -2.738281 C 1.65625 -2.644531 1.65625 -2.53125 1.632812 -2.414062 C 1.632812 -2.117188 1.585938 -1.816406 1.496094 -1.496094 C 1.425781 -1.195312 1.011719 -0.367188 0.691406 -0.367188 Z M 0.691406 -0.367188 "/></g></g></g><g fill="#14df98" fill-opacity="1"><g transform="translate(111.677733, 24.609023)"><g><path d="M 0.757812 -1.863281 C 1.332031 -1.863281 1.746094 -2.277344 2.09375 -2.667969 C 2.460938 -3.128906 2.804688 -3.609375 3.152344 -4.09375 C 3.402344 -4.484375 3.679688 -4.898438 3.933594 -5.289062 C 4.183594 -5.679688 4.4375 -6.070312 4.691406 -6.460938 C 4.714844 -6.53125 4.78125 -6.621094 4.851562 -6.738281 C 4.921875 -6.851562 4.96875 -6.96875 4.96875 -7.035156 C 4.96875 -7.058594 4.945312 -7.105469 4.921875 -7.128906 C 4.875 -7.199219 4.804688 -7.222656 4.714844 -7.222656 C 4.644531 -7.222656 4.578125 -7.199219 4.53125 -7.152344 C 4.507812 -7.128906 4.484375 -7.082031 4.484375 -7.058594 C 4.460938 -7.035156 4.4375 -6.992188 4.414062 -6.96875 L 3.035156 -4.898438 C 2.757812 -4.4375 1.355469 -2.460938 0.851562 -2.460938 C 0.757812 -2.460938 0.691406 -2.550781 0.667969 -2.714844 L 0.667969 -2.875 C 0.644531 -3.425781 0.691406 -4 0.78125 -4.554688 L 0.917969 -5.128906 C 0.964844 -5.289062 1.058594 -5.382812 1.195312 -5.402344 C 1.3125 -5.425781 1.402344 -5.472656 1.496094 -5.496094 C 1.585938 -5.519531 1.679688 -5.542969 1.769531 -5.589844 C 2.390625 -5.957031 3.035156 -6.507812 3.242188 -7.242188 C 3.402344 -7.726562 3.265625 -8.046875 2.804688 -8.253906 C 2.597656 -8.371094 2.4375 -8.371094 2.183594 -8.371094 C 2 -8.371094 1.816406 -8.300781 1.609375 -8.1875 C 1.425781 -8.046875 1.289062 -7.910156 1.171875 -7.796875 C 0.898438 -7.519531 0.667969 -7.175781 0.484375 -6.828125 C -0.136719 -5.566406 -0.414062 -4.253906 -0.320312 -2.898438 L -0.253906 -2.53125 C -0.136719 -2.070312 0.320312 -1.863281 0.757812 -1.863281 Z M 1.265625 -5.886719 C 1.195312 -5.910156 1.195312 -5.957031 1.21875 -6.023438 C 1.355469 -6.484375 2.046875 -7.886719 2.550781 -7.886719 C 2.644531 -7.886719 2.714844 -7.839844 2.738281 -7.726562 L 2.738281 -7.679688 C 2.738281 -7.035156 1.953125 -6.117188 1.355469 -5.886719 C 1.332031 -5.863281 1.289062 -5.863281 1.265625 -5.886719 Z M 1.265625 -5.886719 "/></g></g></g><g fill="#ffffff" fill-opacity="1"><g transform="translate(4.490131, 26.038024)"><g><path d="M 4.335938 -4.964844 C 4.519531 -4.964844 4.675781 -5.042969 4.675781 -5.222656 C 4.703125 -5.328125 4.675781 -5.40625 4.546875 -5.484375 C 4.46875 -5.539062 4.363281 -5.589844 4.285156 -5.617188 C 4.101562 -5.640625 3.945312 -5.722656 3.8125 -5.902344 C 3.683594 -6.035156 3.578125 -6.191406 3.472656 -6.320312 C 3.34375 -6.453125 3.214844 -6.582031 3.082031 -6.714844 C 2.457031 -7.339844 2.457031 -7.183594 3.003906 -7.914062 L 3.1875 -8.148438 C 3.710938 -8.855469 4.179688 -9.5625 4.570312 -10.316406 L 4.804688 -10.839844 C 4.859375 -10.996094 4.804688 -11.128906 4.648438 -11.257812 C 4.546875 -11.3125 4.441406 -11.335938 4.363281 -11.335938 C 4.074219 -11.335938 3.8125 -10.972656 3.683594 -10.761719 C 3.371094 -10.316406 3.054688 -9.898438 2.742188 -9.480469 C 2.402344 -9.0625 2.117188 -8.621094 1.855469 -8.148438 C 1.828125 -8.125 1.800781 -8.070312 1.777344 -8.046875 C 1.722656 -7.96875 1.644531 -7.914062 1.542969 -7.890625 C 1.253906 -7.785156 1.226562 -7.707031 1.410156 -7.496094 C 1.460938 -7.417969 1.515625 -7.367188 1.566406 -7.3125 C 1.59375 -7.234375 1.644531 -7.183594 1.722656 -7.132812 C 1.828125 -7 1.933594 -6.894531 2.0625 -6.792969 C 2.167969 -6.660156 2.273438 -6.558594 2.402344 -6.425781 C 2.742188 -6.085938 3.082031 -5.773438 3.421875 -5.460938 C 3.605469 -5.277344 3.789062 -5.121094 4.023438 -5.042969 Z M 4.335938 -4.964844 "/></g></g></g><g fill="#ffffff" fill-opacity="1"><g transform="translate(10.602777, 26.038024)"><g><path d="M 1.878906 1.699219 C 2.089844 1.699219 2.195312 1.699219 2.296875 1.488281 C 2.820312 0.546875 3.214844 -0.445312 3.550781 -1.460938 L 5.042969 -5.484375 C 5.222656 -6.058594 5.433594 -6.636719 5.667969 -7.234375 C 5.878906 -7.8125 6.085938 -8.386719 6.269531 -8.960938 C 6.792969 -10.449219 7.261719 -11.910156 7.757812 -13.402344 C 7.835938 -13.6875 7.890625 -13.921875 7.96875 -14.160156 L 8.515625 -16.507812 C 8.542969 -16.640625 8.566406 -16.746094 8.59375 -16.875 C 8.59375 -16.980469 8.59375 -17.109375 8.621094 -17.242188 C 8.621094 -17.371094 8.542969 -17.449219 8.386719 -17.476562 C 8.175781 -17.476562 7.96875 -17.476562 7.863281 -17.242188 L 7.628906 -16.691406 C 7.496094 -16.328125 7.394531 -15.960938 7.289062 -15.59375 C 7.183594 -15.230469 7.078125 -14.863281 6.949219 -14.523438 C 6.738281 -13.820312 6.503906 -13.191406 6.269531 -12.488281 C 6.191406 -12.25 6.113281 -12.015625 6.035156 -11.78125 C 5.957031 -11.546875 5.851562 -11.335938 5.773438 -11.101562 L 3.292969 -4.207031 C 3.132812 -3.761719 2.976562 -3.34375 2.847656 -2.925781 C 2.691406 -2.480469 2.535156 -2.0625 2.351562 -1.621094 C 2.21875 -1.226562 2.0625 -0.835938 1.933594 -0.445312 C 1.777344 -0.0507812 1.621094 0.3125 1.488281 0.707031 L 1.332031 1.175781 C 1.28125 1.359375 1.359375 1.488281 1.542969 1.566406 C 1.671875 1.644531 1.777344 1.671875 1.878906 1.699219 Z M 1.878906 1.699219 "/></g></g></g><g fill="#ffffff" fill-opacity="1"><g transform="translate(20.529309, 26.038024)"><g><path d="M 1.800781 -4.804688 L 2.117188 -4.886719 C 2.296875 -4.964844 2.507812 -5.09375 2.714844 -5.304688 C 3.054688 -5.617188 3.394531 -5.929688 3.734375 -6.269531 C 3.867188 -6.398438 3.96875 -6.503906 4.101562 -6.636719 C 4.207031 -6.738281 4.308594 -6.84375 4.414062 -6.976562 C 4.492188 -7.027344 4.546875 -7.078125 4.597656 -7.15625 C 4.625 -7.210938 4.675781 -7.261719 4.726562 -7.339844 C 4.859375 -7.523438 4.832031 -7.652344 4.597656 -7.730469 C 4.492188 -7.757812 4.414062 -7.8125 4.363281 -7.890625 C 4.335938 -7.914062 4.308594 -7.96875 4.285156 -7.992188 C 4.023438 -8.464844 3.734375 -8.90625 3.421875 -9.324219 C 3.082031 -9.742188 2.769531 -10.160156 2.457031 -10.605469 C 2.324219 -10.816406 2.0625 -11.179688 1.777344 -11.179688 C 1.699219 -11.179688 1.59375 -11.152344 1.488281 -11.101562 C 1.332031 -10.972656 1.28125 -10.839844 1.332031 -10.683594 L 1.566406 -10.160156 C 1.960938 -9.402344 2.429688 -8.699219 2.953125 -7.992188 L 3.132812 -7.757812 C 3.683594 -7.027344 3.683594 -7.183594 3.054688 -6.558594 C 2.925781 -6.425781 2.796875 -6.296875 2.691406 -6.164062 C 2.558594 -6.035156 2.457031 -5.878906 2.324219 -5.746094 C 2.195312 -5.5625 2.039062 -5.484375 1.855469 -5.460938 C 1.777344 -5.433594 1.671875 -5.382812 1.59375 -5.328125 C 1.460938 -5.25 1.4375 -5.171875 1.460938 -5.066406 C 1.460938 -4.886719 1.621094 -4.804688 1.800781 -4.804688 Z M 1.800781 -4.804688 "/></g></g></g></svg>